<svg width="200" height="170" viewBox="0 0 200 170" fill="none" xmlns="http://www.w3.org/2000/svg">
<path d="M200 130.32L199.538 120.149C198.723 102.22 196.789 95.3832 190.867 89.5008C186.484 85.1454 181.22 82.5804 171.741 80.1805C163.055 77.9818 162.77 77.9515 161.683 79.1083C159.556 81.3715 154.506 83.2953 149.204 83.8612L146.725 84.1258L149.594 85.6805C161.802 92.2963 168.444 101.819 171.328 116.84C172.396 122.396 172.901 127.396 173.268 136.008C173.438 140.027 173.664 143.401 173.769 143.507C173.992 143.73 181.532 141.769 184.644 140.679C190.155 138.746 196.692 134.656 198.903 131.758L200 130.32Z" fill="black"/>
<path d="M0 130.32L0.461914 120.149C1.08008 106.562 2.13672 100.651 4.9375 95.1244C8.93945 87.2264 16.4785 82.8104 32.1445 79.1869C34.3887 78.6683 36.4648 78.2308 36.7588 78.2162C37.0518 78.201 37.8926 78.7157 38.626 79.3597C41.3584 81.7591 45.5186 83.2977 50.7959 83.8612L53.2754 84.1258L50.4062 85.6805C38.1982 92.2963 31.5557 101.819 28.6719 116.84C27.6045 122.396 27.0986 127.396 26.7324 136.008C26.5615 140.027 26.3359 143.401 26.2314 143.507C26.0078 143.73 18.4678 141.769 15.3564 140.679C9.84473 138.746 3.30762 134.656 1.09668 131.758L0 130.32Z" fill="black"/>
<path d="M68.958 18.3627C73.2432 6.9779 81.5029 1.2738 95.2314 0.218133C97.5322 0.0418633 100.205 -0.0455391 101.17 0.0237969L106.046 0.378777C118.462 1.28552 126.899 7.35534 131.042 18.3627C133.326 24.432 134.63 37.1219 133.874 45.9325C132.371 63.4452 121.634 78.0546 107.38 81.9813C103.923 82.934 96.0771 82.934 92.6201 81.9813C78.3662 78.0546 67.6289 63.4452 66.126 45.9325C65.3701 37.1219 66.6738 24.432 68.958 18.3627Z" fill="black"/>
<path d="M26.5254 25.7255C29.1016 15.5072 36.5713 9.46667 47.9268 8.41882C53.5869 7.89636 62.8857 8.73376 62.668 9.74597C62.6416 9.86852 62.4043 10.4691 62.0605 11.2943C61.8223 11.8646 61.5342 12.5424 61.2285 13.2435C58.1367 20.348 56.9268 27.8641 56.9287 39.9628C56.9287 47.6234 57.042 49.2601 57.8145 52.8348C59.0703 58.6429 60.7197 63.3343 63.127 67.9471L65.2119 71.9423L62.7715 73.1078C56.1084 76.2875 48.2529 76.1781 41.6572 72.8129C33.8428 68.826 27.7178 59.8798 25.4434 49.1293C24.4297 44.3387 25.0127 31.7255 26.5254 25.7255Z" fill="black"/>
<path d="M137.332 9.77722C137.209 9.25182 139.215 8.7777 143.102 8.41393C145.032 8.23278 146.7 8.06188 146.808 8.03307C147.797 7.76745 156.558 9.01696 158.904 9.75817C167.955 12.6171 172.872 19.4252 174.522 31.3817C175.149 35.9291 175.17 46.2333 174.557 49.1293C172.282 59.8798 166.157 68.826 158.343 72.8129C151.747 76.1781 143.892 76.2875 137.229 73.1078L134.788 71.9423L136.873 67.9471C139.28 63.3343 140.93 58.6429 142.186 52.8348C142.958 49.2601 143.071 47.6234 143.071 39.9628C143.073 27.8641 141.863 20.348 138.771 13.2435C138.024 11.5272 137.376 9.96764 137.332 9.77722Z" fill="black"/>
<path d="M37.7656 117.958C41.4229 100.115 50.9307 92.4916 76.2061 87.1371C80.8076 86.1625 81.1309 86.1927 82.9707 87.7738C85.0938 89.5985 89.3945 91.6498 92.7949 92.4598C96.416 93.3226 103.584 93.3226 107.205 92.4598C110.636 91.6424 114.91 89.5946 117.085 87.7264C118.691 86.3465 118.85 86.2963 120.789 86.5536C124.44 87.038 136.094 90.1864 140.251 91.8124C151.642 96.2655 158.054 102.909 161.192 113.509C163.162 120.161 164.36 132.11 164.36 145.096V151.067L162.375 153.239C153.938 162.471 134.035 168.461 108.679 169.401C74.8613 170.654 49.3945 164.957 38.0361 153.598L35.5166 151.079L35.7715 140.671C36.0615 128.828 36.4541 124.355 37.7656 117.958Z" fill="black"/>
</svg>
