<svg width="72" height="39" viewBox="0 0 72 39" fill="none" xmlns="http://www.w3.org/2000/svg">
<path d="M3.80952 9.38266V17.8236V21C3.80952 21 3.80952 20.9716 3.80952 20.9535C3.80952 17.4641 3.80952 29.8885 3.80952 29.8885C3.80952 37.1646 3.53046 38.8236 2.30952 38.8236C1.09345 38.8236 0.809516 37.2086 0.809516 30.2926C0.809516 26.4654 0.653266 23.983 0.309516 22.6261C-0.0342339 21.2691 0.309516 17.3236 0.309516 17.3236L0.580512 9.82358C0.885444 1.38266 1.34443 -0.581448 2.80244 0.319675C3.35664 0.661472 3.80952 4.7396 3.80952 9.38266Z" fill="black"/>
<path d="M22.4736 19.5C22.5357 18.8405 22.5824 17.8236 22.5824 17.8236L23.0205 9.07358C23.2514 2.09067 23.6125 0.323581 24.8095 0.323581C26.0065 0.323581 26.3676 2.09067 26.5986 9.07358L26.8876 17.8236C26.8876 17.8236 26.9056 18.8456 26.8876 19.5C26.8716 20.0864 26.8096 21 26.8096 21L26.8095 21.8236V30.3966C26.8095 38.0226 26.6164 38.9337 25.0595 38.6346C23.6015 38.3556 23.2536 36.9647 22.9736 30.3116C22.7895 25.9186 22.4736 22.2105 22.4736 22.2105C22.4736 22.2105 22.3743 20.5539 22.4736 19.5Z" fill="black"/>
<path d="M45.8096 21C45.8096 21.3216 45.8095 21.8236 45.8095 21.8236V30.3966C45.8095 38.0226 46.0026 38.9337 47.5595 38.6356C49.0285 38.3556 49.3566 36.9767 49.5996 30.0626C49.7582 25.5667 49.8096 22.5 49.8096 22.5L49.8095 19V17.8236L49.7944 10.0736C49.7785 2.12168 48.8786 -0.955471 46.9216 0.25449C46.2475 0.670505 45.8095 4.26767 45.8095 9.38266V17.8236C45.8095 17.8236 45.8096 18.5406 45.8096 19C45.8096 19.781 45.8096 20.219 45.8096 21Z" fill="black"/>
<path d="M68.8095 20.5345C68.7814 20.2372 68.7314 19.7738 68.7314 19.7738V17.8236L69.0205 9.07358C69.1845 4.09946 69.7414 0.323581 70.3095 0.323581C70.8776 0.323581 71.4345 4.09946 71.5986 9.07358L71.8876 17.8236V18.2623L71.8095 20.5V21.0465V29.9356C71.8095 37.1695 71.5305 38.8236 70.3095 38.8236C69.0854 38.8236 68.8095 37.1405 68.8095 29.6786C68.8095 29.6786 69.1463 24.0896 68.8095 20.5345Z" fill="black"/>
</svg>
