<svg width="156" height="40" viewBox="0 0 156 40" fill="none" xmlns="http://www.w3.org/2000/svg">
<path d="M60.7754 9.75974C62.9957 5.73777 64.8116 1.94089 64.8116 1.32078C64.8116 -2.02712 61.7396 1.19285 57.7896 8.68186L53.3116 17.1689L28.3116 17.2119C13.9415 17.2368 3.94951 17.6179 4.81157 18.1098C6.12066 18.8557 38.5677 21.1938 47.6187 21.1938H50.9166L46.3636 29.5449C41.3245 38.7898 41.1937 39.1938 43.2396 39.1938C44.0245 39.1938 46.8365 35.1318 49.4896 30.1657L54.3116 21.1379L65.5616 21.4089C71.7496 21.5578 76.8116 22.0779 76.8116 22.5639C76.8116 23.0498 74.9986 26.7309 72.7835 30.7448C70.1475 35.5198 69.1336 38.2749 69.8506 38.7178C71.3206 39.6269 71.5486 39.3369 76.8006 29.8989L81.3655 21.6938L104.071 21.0508L99.4605 29.5759C96.3475 35.3337 95.2186 38.3279 95.9835 38.7998C97.4085 39.6809 99.0755 37.4638 103.429 28.8989C105.328 25.1618 107.429 21.9199 108.096 21.6948C108.765 21.4699 118.641 20.7788 130.044 20.1589C161.986 18.4238 164.023 17.3918 135.497 17.3948C121.849 17.3967 110.542 17.2397 110.369 17.0459C110.197 16.8518 111.992 13.2119 114.358 8.95676C116.726 4.7009 118.246 0.961889 117.737 0.647925C116.15 -0.333277 115.059 0.992895 110.677 9.21775C108.339 13.6047 106.063 17.2129 105.619 17.2358C105.175 17.2588 100.537 17.2768 95.3116 17.2768C90.0865 17.2768 85.3616 17.2588 84.8126 17.2358C84.2625 17.2129 85.7256 13.6347 88.0626 9.28391C91.9185 2.10471 92.6016 -1.0303 89.9517 0.606909C89.4056 0.9448 86.9395 4.92673 84.4715 9.45774L79.9847 17.6938L56.7386 17.0718L60.7754 9.75974Z" fill="black"/>
<path d="M0.624563 17.8769C1.34551 18.1657 2.20855 18.1299 2.54058 17.7978C2.87261 17.4658 2.28252 17.2297 1.22857 17.2729C0.0635277 17.3208 -0.173533 17.5578 0.624563 17.8769Z" fill="black"/>
</svg>
