<svg width="153" height="39" viewBox="0 0 153 39" fill="none" xmlns="http://www.w3.org/2000/svg">
<path d="M47.6567 17.8236V9.38266C47.6567 4.7396 47.2039 0.661472 46.6497 0.319675C45.1917 -0.581448 44.7327 1.38266 44.4277 9.82358L44.1567 17.3236L0.156738 18.3236L21.1567 19.6517C32.7068 20.3817 42.7197 21.1546 43.4067 21.3695C44.2788 21.6427 44.6567 24.3426 44.6567 30.2926C44.6567 37.2086 44.9407 38.8236 46.1567 38.8236C47.3777 38.8236 47.6567 37.1646 47.6567 29.8885V20.9535L56.9067 21.5255C61.9937 21.8407 66.2307 22.1485 66.3208 22.2105C66.4116 22.2726 66.6367 25.9186 66.8208 30.3116C67.1008 36.9647 67.4487 38.3556 68.9067 38.6346C70.4636 38.9337 70.6567 38.0226 70.6567 30.3966V21.8236H89.6567V30.3966C89.6567 38.0226 89.8499 38.9337 91.4067 38.6356C92.8757 38.3556 93.2039 36.9767 93.4468 30.0626C93.7368 21.8446 93.7446 21.8236 96.4468 21.8165C97.9377 21.8126 102.195 21.5226 105.907 21.1715L112.657 20.5345V29.6786C112.657 37.1405 112.933 38.8236 114.157 38.8236C115.378 38.8236 115.657 37.1695 115.657 29.9356V21.0465L128.407 20.3187C158.433 18.6036 160.273 18.1256 137.446 17.9706L115.735 17.8236L115.446 9.07358C115.282 4.09946 114.725 0.323582 114.157 0.323582C113.589 0.323582 113.032 4.09946 112.868 9.07358L112.579 17.8236H93.6567L93.6416 10.0736C93.6257 2.12168 92.7258 -0.955471 90.7688 0.25449C90.0947 0.670505 89.6567 4.26767 89.6567 9.38266V17.8236H70.7349L70.4458 9.07358C70.2148 2.09067 69.8538 0.323582 68.6567 0.323582C67.4597 0.323582 67.0986 2.09067 66.8677 9.07358L66.5786 17.8236H47.6567Z" fill="black"/>
</svg>
