<svg width="153" height="53" viewBox="0 0 153 53" fill="none" xmlns="http://www.w3.org/2000/svg">
<path d="M72.7255 3.53003C73.9384 3.14502 74.7584 2.30591 74.5485 1.66504C74.1425 0.427979 70.1225 -0.227051 68.1325 0.620117C67.4794 0.897949 64.4584 4.2019 61.4206 7.96191C58.2834 11.845 54.2594 15.5979 52.1085 16.6489C47.8395 18.7351 47.1273 21.3311 50.6864 21.835C52.5514 22.0991 54.8996 20.272 61.7855 13.2C66.5895 8.26709 71.5124 3.91504 72.7255 3.53003Z" fill="black"/>
<path d="M110.07 4.39404C111.582 3.59888 112.82 2.28491 112.82 1.47412C112.82 0.516113 111.811 0 109.939 0C106.906 0 102.801 3.48608 98.5844 9.63892C97.3595 11.428 94.6483 13.928 92.5604 15.196C85.5094 19.4761 85.2155 19.759 86.4975 21.0591C88.6596 23.2529 92.4235 21.115 99.9064 13.4419C103.985 9.26099 108.558 5.18896 110.07 4.39404Z" fill="black"/>
<path d="M0.32046 25.052C23.7426 28.8831 125.368 28.876 151.82 25.041C154.845 24.603 120.871 24.2419 76.3205 24.239C30.9525 24.2361 -2.47959 24.594 0.32046 25.052Z" fill="black"/>
<path d="M64.2326 35.4771C66.2394 34.397 67.4164 33.1101 67.1154 32.3259C66.3935 30.4451 62.4096 30.6831 60.0094 32.75C58.8915 33.7119 55.6754 37.313 52.8625 40.75C50.0495 44.188 47.2016 47.002 46.5343 47.0049C45.8664 47.0081 43.9704 48.094 42.3205 49.418L39.3205 51.8259L41.9774 52.498C45.6464 53.426 47.7104 52.0791 54.7465 44.1621C58.0995 40.3899 62.3686 36.4819 64.2326 35.4771Z" fill="black"/>
<path d="M104.246 34.438C105.372 33.8159 105.866 32.884 105.436 32.188C104.191 30.1719 100.223 30.8711 97.5084 33.584C96.0875 35.0061 93.4384 38.1321 91.6225 40.532C89.8065 42.9309 86.1835 46.072 83.5705 47.51C78.7956 50.1389 77.9225 51.3269 79.8776 52.5349C82.2035 53.9729 85.9135 51.657 93.9254 43.7671C98.5424 39.22 103.186 35.022 104.246 34.438Z" fill="black"/>
</svg>
