<svg width="154" height="54" viewBox="0 0 154 54" fill="none" xmlns="http://www.w3.org/2000/svg">
<path fill-rule="evenodd" clip-rule="evenodd" d="M103.308 7.91563C106.959 4.81863 109.945 1.83362 109.945 1.28262C109.945 -1.16238 107.285 -0.112377 101.953 4.43762L96.2043 9.34363L90.2153 6.25462C82.5953 2.32462 73.2173 1.53063 65.3373 4.14863C56.2563 7.16463 49.3913 15.6656 46.9953 26.8626L46.4073 29.6126L20.1763 29.7436C-8.28368 29.8856 -6.52266 30.6696 26.2483 32.4466C35.7643 32.9626 43.8033 33.6376 44.1123 33.9456C44.4203 34.2546 43.2713 38.3786 41.5593 43.1116C39.8463 47.8446 38.4453 52.1436 38.4453 52.6646C38.4453 53.2306 46.5263 53.6126 58.4773 53.6126C74.3253 53.6126 79.2863 53.2886 82.2273 52.0596C89.1244 49.1786 94.4453 42.5246 94.4453 36.7826V33.8526L106.195 33.2016C133.936 31.6656 152.974 30.3766 153.362 30.0086C153.591 29.7906 140.203 29.6126 123.612 29.6126C98.9543 29.6126 93.4453 29.3656 93.4453 28.2626C93.4453 25.3036 87.2153 18.3986 82.7733 16.4336C74.3553 12.7096 64.3983 16.9406 62.3393 25.1186L61.2083 29.6126H51.4453V26.0726C51.4453 18.0396 58.6833 9.76263 68.1013 7.02463C75.5003 4.87363 81.1363 5.66262 89.8083 10.0626L96.6723 13.5456L103.308 7.91563ZM65.4453 27.5466C65.4453 24.4786 67.1573 21.8336 70.2203 20.1716C75.8243 17.1306 83.1353 18.8606 87.3573 24.2276C90.6973 28.4736 90.1073 29.6126 84.5673 29.6126C81.4523 29.6126 79.2403 29.0706 78.4453 28.1126C77.7603 27.2876 76.5803 26.6126 75.8233 26.6126C75.0653 26.6126 74.4453 27.2876 74.4453 28.1126C74.4453 29.2236 73.2783 29.6126 69.9453 29.6126C66.0643 29.6126 65.4453 29.3286 65.4453 27.5466ZM58.1063 42.7606C55.5773 40.4026 52.4453 35.6446 52.4453 34.1626C52.4453 33.8596 54.9203 33.6126 57.9453 33.6126C60.9703 33.6126 63.4453 33.9966 63.4453 34.4666C63.4453 34.9366 64.5493 36.5116 65.8973 37.9666C67.7713 39.9886 69.3053 40.6126 72.3973 40.6126C76.6373 40.6126 80.4453 38.0106 80.4453 35.1126C80.4453 33.9606 81.7233 33.6126 85.9453 33.6126C92.0653 33.6126 92.4683 34.2286 90.0813 39.9416C87.3973 46.3646 78.5543 51.4186 72.1123 50.2096C67.9483 49.4286 61.6843 46.0966 58.1063 42.7606ZM76.8033 35.1216C75.6243 38.1946 67.4453 37.7196 67.4453 34.5776C67.4453 34.0466 69.6813 33.6126 72.4143 33.6126C76.4323 33.6126 77.2723 33.9016 76.8033 35.1216ZM45.2873 42.8996C46.3003 40.2666 47.4583 37.2126 47.8623 36.1126C48.5103 34.3426 48.7643 34.5146 50.0683 37.6126C50.8783 39.5376 53.6403 43.2506 56.2063 45.8626L60.8703 50.6126H52.1573C46.9644 50.6126 44.5092 50.6215 43.7813 49.5046C43.1246 48.497 43.874 46.573 45.2873 42.8996Z" fill="black"/>
</svg>
