<svg width="152" height="60" viewBox="0 0 152 60" fill="none" xmlns="http://www.w3.org/2000/svg">
<path d="M151.664 34.802C125.211 38.637 23.5858 38.6441 0.163722 34.813C-2.63633 34.355 30.7958 33.9971 76.1637 34C120.714 34.0029 154.689 34.364 151.664 34.802Z" fill="black"/>
<path d="M55 0L63.0625 11.8107L59.3125 11.0915C60.1375 10.1325 61.225 9.27445 62.575 8.51735C63.725 7.8612 65.2125 7.26814 67.0375 6.73817C68.8875 6.18297 71.15 5.90536 73.825 5.90536C76.85 5.90536 79.7625 6.22082 82.5625 6.85174C85.3625 7.48265 87.825 8.4164 89.95 9.653C92.1 10.8896 93.8125 12.429 95.0875 14.2713C96.3625 16.0883 97 18.183 97 20.5552C97 22.5741 96.7125 24.265 96.1375 25.6278C95.5875 26.9905 94.85 28.1388 93.925 29.0726C93 30.0063 91.95 30.776 90.775 31.3817C89.6 31.9874 88.4 32.5678 87.175 33.123C85.95 33.653 84.75 34.2082 83.575 34.7886C82.4 35.3439 81.35 36.0379 80.425 36.8707C79.5 37.7035 78.75 38.7382 78.175 39.9748C77.625 41.2114 77.35 42.7508 77.35 44.5931C77.35 44.9464 77.3625 45.3123 77.3875 45.6909C77.4125 46.0694 77.45 46.4732 77.5 46.9022H69.2125C69.1875 46.7508 69.1625 46.5741 69.1375 46.3722C69.1125 46.1956 69.0875 45.9937 69.0625 45.7666C69.0625 45.5394 69.0625 45.2745 69.0625 44.9716C69.0625 44.2397 69.15 43.3691 69.325 42.3596C69.5 41.3249 69.875 40.2524 70.45 39.142C71.05 38.0315 71.8875 36.9338 72.9625 35.8486C74.0625 34.7634 75.525 33.7792 77.35 32.8959C79.15 32.0379 80.6125 31.0915 81.7375 30.0568C82.8625 28.9968 83.725 27.9243 84.325 26.8391C84.95 25.7287 85.375 24.6562 85.6 23.6215C85.825 22.5615 85.9375 21.5899 85.9375 20.7066C85.9375 19.0915 85.6125 17.6782 84.9625 16.4669C84.3375 15.2303 83.4875 14.2082 82.4125 13.4006C81.3625 12.5678 80.1625 11.9495 78.8125 11.5457C77.4625 11.142 76.075 10.9401 74.65 10.9401C72.8 10.9401 71.1625 11.142 69.7375 11.5457C68.3125 11.9243 67.05 12.4669 65.95 13.1735C64.85 13.8549 63.8875 14.6625 63.0625 15.5962C62.2625 16.5047 61.5375 17.5016 60.8875 18.5868C60.2375 19.6467 59.6375 20.7697 59.0875 21.9558C58.5625 23.1167 58.0375 24.2776 57.5125 25.4385L55 0ZM78.5875 55.4574C78.5875 56.265 78.375 56.959 77.95 57.5394C77.55 58.1199 77.05 58.5868 76.45 58.9401C75.85 59.3186 75.225 59.5836 74.575 59.735C73.925 59.9117 73.3625 60 72.8875 60C72.3625 60 71.775 59.9117 71.125 59.735C70.475 59.5836 69.85 59.3186 69.25 58.9401C68.675 58.5868 68.1875 58.1199 67.7875 57.5394C67.3875 56.959 67.1875 56.265 67.1875 55.4574C67.1875 54.5994 67.3875 53.8675 67.7875 53.2618C68.1875 52.6562 68.675 52.164 69.25 51.7855C69.85 51.3817 70.475 51.0915 71.125 50.9148C71.775 50.7382 72.3625 50.6498 72.8875 50.6498C73.3625 50.6498 73.925 50.7382 74.575 50.9148C75.225 51.0915 75.85 51.3817 76.45 51.7855C77.05 52.164 77.55 52.6562 77.95 53.2618C78.375 53.8675 78.5875 54.5994 78.5875 55.4574Z" fill="black"/>
</svg>
