<svg width="153" height="52" viewBox="0 0 153 52" fill="none" xmlns="http://www.w3.org/2000/svg">
<path d="M74.9102 20.8364C74.9102 10.1125 75.3041 0.945227 75.7863 0.462989C77.1256 -0.875104 84.7722 0.8939 87.3183 3.13201C88.5632 4.22541 90.5579 7.30146 91.7515 9.9681C94.4241 15.9388 96.9583 18.2939 102.364 19.8313C106.331 20.9581 106.374 21.0238 103.2 21.1264C98.1364 21.2888 93.0956 18.1089 90.5662 13.1516C87.5295 7.20239 84.0608 4.2457 80.6779 4.72555C77.9098 5.11707 77.8907 5.23524 77.2975 26.0085C76.9692 37.4975 76.3091 47.4992 75.8305 48.2345C74.5151 50.2565 68.0323 52.6331 65.9792 51.8453C61.1556 49.9951 66.7825 40.3324 72.684 40.3324C74.7657 40.3324 74.9102 39.0672 74.9102 20.8364Z" fill="black"/>
<path d="M151.82 24.802C125.368 28.637 23.7426 28.6441 0.32046 24.813C-2.47959 24.355 30.9525 23.9971 76.3205 24C120.871 24.0029 154.845 24.364 151.82 24.802Z" fill="black"/>
</svg>
