<svg width="153" height="52" viewBox="0 0 153 52" fill="none" xmlns="http://www.w3.org/2000/svg">
<path fill-rule="evenodd" clip-rule="evenodd" d="M63.7669 0.809153C64.8423 1.88511 64.8001 2.37287 63.2761 6.42172C61.9798 9.86587 59.6251 18.5308 58.4341 24.0184C60.0587 24.0149 61.7065 24.0118 63.3761 24.0093C67.0873 19.1818 75.3994 9.40308 79.3494 5.27572C84.7817 -0.400716 86.0359 -1.01312 87.5368 1.27734C88.3299 2.48824 88.2934 2.74783 86.8214 6.29914C84.5799 11.7067 82.7625 18.8582 82.24 24.0025C83.5497 24.0036 84.8487 24.0049 86.1364 24.0066C91.4027 17.9979 100.51 9.48111 106.615 4.9363C110.263 2.22144 113.552 0 113.926 0C115.326 0 116.597 1.09964 116.597 2.31106C116.597 2.99557 115.806 5.36277 114.839 7.57236C112.568 12.7653 110.77 18.1033 109.324 24.074C136.412 24.2018 154.035 24.4813 151.82 24.802C143.39 26.0242 127.325 26.8576 108.589 27.3019C107.652 31.6911 106.88 36.4396 106.228 41.7196C105.617 46.677 104.89 51.023 104.613 51.3769C103.914 52.2705 101.407 52.184 100.623 51.2393C99.6118 50.0214 101.124 37.8751 103.264 27.4164C98.9798 27.4993 94.5853 27.5628 90.1361 27.607C87.8835 30.2334 85.7092 32.9579 83.715 35.6676C80.8451 39.5671 79.7465 40.6894 78.7988 40.6894C76.4759 40.6894 76.2421 39.7278 76.5748 31.5297C76.6239 30.3216 76.7012 29.0042 76.7971 27.681C73.6061 27.685 70.4151 27.6793 67.2437 27.6639C67.2395 27.6695 67.2354 27.6751 67.2312 27.6807C65.0628 30.582 61.2874 36.1446 58.8419 40.042C54.0766 47.636 52.9286 48.5667 50.9791 46.4128C50.0947 45.4352 50.0927 45.0849 50.9286 38.2759C51.2649 35.5368 51.9017 31.486 52.5881 27.5199C50.3918 27.4869 48.2214 27.449 46.0842 27.406C42.6001 33.1775 39.2424 39.8478 36.5694 46.3551L34.3484 51.7632H32.3366C30.4541 51.7632 30.3145 51.6581 30.1667 50.1315C29.9075 47.4609 34.7454 36.6525 40.0508 27.2689C22.3414 26.8185 7.57736 26 0.32046 24.813C-1.70462 24.4818 15.222 24.2029 41.9092 24.075C43.1141 22.0658 44.3154 20.1851 45.4603 18.542C48.5254 14.1429 54.5453 6.66843 58.0081 2.96157C60.8893 -0.122583 62.3057 -0.651547 63.7669 0.809153ZM48.1927 24.0484C49.8344 24.0423 51.507 24.0367 53.2087 24.0317C53.9752 19.8421 54.7111 16.264 55.0779 15.1808C55.6543 13.4785 53.0826 16.7378 48.7726 23.1724C48.5793 23.4609 48.386 23.7529 48.1927 24.0484ZM57.7549 27.5876C57.4783 29.2247 57.1783 30.9473 57.0418 31.676C56.7967 32.9863 57.1041 32.7277 59.0681 29.9737C59.6227 29.1961 60.2146 28.3669 60.7494 27.6183C59.7477 27.609 58.7493 27.5988 57.7549 27.5876ZM70.0537 24.0019C72.115 24.0005 74.2048 23.9999 76.3205 24C76.5843 24 76.8478 24.0001 77.111 24.0001C77.2955 22.1311 77.5019 20.4708 77.6976 19.3723C78.1457 16.8547 78.4115 14.6935 78.2879 14.5699C78.0288 14.3109 74.0173 18.9567 70.0537 24.0019ZM82.0883 27.6654L82.088 28.8967L83.0985 27.6604C82.7619 27.6622 82.4251 27.6639 82.0883 27.6654ZM93.318 24.0192C96.9925 24.0274 100.556 24.0382 103.989 24.0513C104.539 21.6277 105.114 19.3869 105.687 17.5119C106.509 14.8207 107.366 12.1816 107.593 11.6475C108.255 10.0848 107.294 10.7466 101.699 15.7092C98.9822 18.119 96.127 20.9572 93.318 24.0192Z" fill="black"/>
</svg>
