<svg width="153" height="65" viewBox="0 0 153 65" fill="none" xmlns="http://www.w3.org/2000/svg">
<path d="M65.4134 25V12.5C65.4134 2.05591 65.1663 0 63.9134 0C62.6604 0 62.4134 2.05591 62.4134 12.5V25L28.6634 25.1311C7.53836 25.2129 -2.84275 25.553 0.913357 26.0391C6.12942 26.7151 38.6595 28.6409 55.6753 29.283C65.8662 29.667 62.5923 31.4819 51.1634 31.7839C44.0545 31.9719 40.4134 32.448 40.4134 33.189C40.4134 33.8059 41.4624 35.7041 42.7444 37.406C47.0884 43.1699 53.2613 54.4739 54.9705 59.791C55.9153 62.731 57.1682 64.9041 57.7913 64.6821C60.8194 63.604 55.9793 50.363 48.9405 40.4709L45.4033 35.5L65.4134 34.9299V29H89.4134V34.9299L109.437 35.5L105.813 40.876C101.136 47.8169 96.3723 58.021 96.1153 61.6521C95.8074 66.001 98.4883 65.1831 99.8904 60.5C101.485 55.1721 105.706 47.0129 110.501 39.989C112.652 36.8369 114.413 33.749 114.413 33.1289C114.413 32.3621 111.044 32 103.913 32C95.9444 32 93.4134 31.6851 93.4134 30.6951C93.4134 29.686 99.5923 29.0901 120.663 28.0669C161.429 26.0889 162.921 25.2991 126.194 25.1411L93.4754 25L93.1944 12.75C92.9624 2.65308 92.6494 0.5 91.4134 0.5C90.1773 0.5 89.8643 2.65308 89.6324 12.75L89.3513 25H65.4134Z" fill="black"/>
</svg>
