<svg width="152" height="50" viewBox="0 0 152 50" fill="none" xmlns="http://www.w3.org/2000/svg">
<path fill-rule="evenodd" clip-rule="evenodd" d="M90.2759 11.75C89.3247 7.21289 88.3179 2.71289 88.0379 1.75C87.5789 0.173096 85.8648 0 70.6558 0C61.3748 0 53.5738 0.337891 53.3199 0.75C53.066 1.16211 52.555 3.53198 52.1829 6.01489C51.8118 8.49805 50.305 12.998 48.8357 16.0149L46.1639 21.5L20.6639 22C0.600868 22.3931 -3.22921 22.665 2.69974 23.272C8.43095 23.8601 36.5318 25.7939 41.9488 25.9741C42.3809 25.988 42.253 26.8999 41.6648 27.999C40.5679 30.0491 41.2068 38.499 42.7808 42.75C43.5948 44.946 43.9729 45 58.6038 45C72.5699 45 73.6668 45.137 74.6639 47C75.6729 48.885 76.7579 49 93.5918 49C105.868 49 110.283 49.2266 111.84 47.2275C112.866 45.9094 112.649 43.624 112.623 39.668C112.588 34.321 112.192 33.042 109.644 30.063C108.028 28.1721 106.85 26.48 107.028 26.303C107.205 26.126 115.747 25.5081 126.009 24.9299C158.225 23.115 159.877 22.2671 131.473 22.127C115.565 22.0481 105.547 21.6189 105.164 21C104.824 20.45 101.724 20 98.2749 20H92.0049L90.2759 11.75ZM52.6158 17.095C53.6888 14.99 55.0928 11.1831 55.7339 8.63403L56.9009 4H84.4468L86.055 11.123C87.4583 17.3364 87.8829 19.2009 87.2146 19.7603C86.9253 20.0024 86.4312 20 85.7229 20C84.6548 20 83.5039 20.45 83.1639 21C82.5288 22.0271 50.6639 22.479 50.6639 21.46C50.6639 21.1631 51.5418 19.199 52.6158 17.095ZM45.4129 35.75C44.7918 32.04 44.9759 30.4529 46.2559 28.5C47.8929 26.002 47.9048 26 64.2788 26C74.5039 26 80.6639 26.375 80.6639 26.9971C80.6639 27.5459 79.0889 29.738 77.1639 31.8679C75.014 34.248 73.6639 36.7671 73.6639 38.3989V41.0559L46.2078 40.5L45.4129 35.75ZM80.1348 34.8521C81.566 33.1521 83.4068 30.4641 84.2259 28.8799C85.6878 26.052 85.8648 26.001 93.9397 26.0581L102.164 26.1169L105.414 31.1709C107.826 34.9231 108.664 37.364 108.664 40.6389V45.052L78.1639 44.5L77.8489 41.2219C77.6199 38.842 78.2459 37.0969 80.1348 34.8521Z" fill="black"/>
</svg>
