<svg width="144" height="55" viewBox="0 0 144 55" fill="none" xmlns="http://www.w3.org/2000/svg">
<path d="M73.5684 3.83988C92.5674 3.83988 94.0584 3.71098 93.7463 2.08988C93.4412 0.502969 91.5303 0.314981 73.2454 0.0698636C53.7024 -0.193076 50.8013 0.193887 52.4363 2.83988C52.8162 3.4539 60.9712 3.83988 73.5684 3.83988Z" fill="black"/>
<path fill-rule="evenodd" clip-rule="evenodd" d="M88.9363 20.2239C93.6902 15.0669 94.5584 9.88285 90.6863 9.7808C69.1992 9.21586 54.6333 9.50077 53.8013 10.503C52.4392 12.1429 55.3084 18.586 59.1834 22.5899L62.3284 25.8399L27.8823 25.9788C3.00636 26.0799 -4.06273 26.3409 2.43629 26.918C11.9954 27.7669 52.0383 29.8399 58.8713 29.8399C62.2842 29.8399 62.9363 30.1639 62.9363 31.8619C62.9363 32.9749 61.2002 35.7869 59.0784 38.1119C54.4263 43.2088 52.9363 45.898 52.9363 49.1919C52.9363 50.9512 52.898 52.1626 53.4402 52.9969C54.6734 54.8946 58.9104 54.8399 73.4353 54.8399H92.7192L93.2993 52.5288C94.2573 48.711 92.1072 43.191 87.9053 38.6849C84.2952 34.8128 82.2222 31.2198 83.0952 30.347C83.2832 30.159 94.6873 29.4898 108.437 28.8599C152.461 26.8438 154.865 26.1329 118.186 25.9788C99.8982 25.9029 84.9363 25.5528 84.9363 25.2019C84.9363 24.8509 86.7363 22.6109 88.9363 20.2239ZM61.9363 19.3399C59.7363 16.7979 57.9363 14.3289 57.9363 13.8538C57.9363 12.6748 87.6482 12.565 88.3753 13.7408C88.6924 14.2539 86.8113 17.1729 84.1943 20.2268L79.4363 25.7798L72.6863 25.8099C68.9744 25.8269 65.9363 25.4168 65.9363 24.9009C65.9363 24.3838 64.1362 21.8819 61.9363 19.3399ZM60.7942 42.5679C65.2874 37.6448 66.9363 34.7818 66.9363 31.9058C66.9363 30.0508 67.5403 29.8399 72.8572 29.8399C78.6543 29.8399 78.7913 29.9038 79.4524 32.9148C79.8242 34.6048 82.1104 38.221 84.5322 40.9478C86.9544 43.6748 88.9363 46.305 88.9363 46.7918C88.9363 47.2779 89.2092 48.388 89.5432 49.2579C90.0813 50.6609 88.2764 50.8399 73.5432 50.8399C57.5422 50.8399 56.9363 50.7659 56.9363 48.8179C56.9363 47.7049 58.6724 44.8929 60.7942 42.5679Z" fill="black"/>
</svg>
