<svg width="72" height="50" viewBox="0 0 72 50" fill="none" xmlns="http://www.w3.org/2000/svg">
<path fill-rule="evenodd" clip-rule="evenodd" d="M46.5918 1.75C46.8718 2.71289 47.8786 7.21289 48.8298 11.75L50.5588 20H56.8288C60.2778 20 63.3777 20.45 63.7177 21L63.9677 23L64.2785 23.6248C64.4189 23.9075 64.5818 24.2366 64.7109 24.5C65.0549 25.2021 65.2082 25.616 65.5818 26.303L65.6477 26.4248C66.4448 27.8914 66.6242 28.2219 68.1977 30.063C70.7458 33.042 71.1418 34.321 71.1767 39.668C71.1806 40.2578 71.1887 40.8103 71.1963 41.3281C71.2397 44.2839 71.2666 46.106 70.3935 47.2275C68.9902 49.0303 65.2617 49.0229 55.5398 49.0042C54.4812 49.0022 53.3513 49 52.1457 49C35.3117 49 34.2268 48.885 33.2177 47C32.2207 45.137 31.1238 45 17.1577 45C2.52683 45 2.14865 44.946 1.33469 42.75C-0.239285 38.499 0.218723 27.999 0.218723 27.999C0.218723 27.999 0.237278 26.7273 0.502658 25.9741C1.02439 24.4924 3.21091 23 3.21091 23L4.71775 21.5L7.38962 16.0149C8.85886 12.998 10.3657 8.49805 10.7368 6.01489C11.1089 3.53198 11.6198 1.16211 11.8738 0.75C12.1277 0.337891 19.9287 0 29.2097 0C44.4187 0 46.1328 0.173096 46.5918 1.75ZM14.2878 8.63403C13.6467 11.1831 12.2426 14.99 11.1697 17.095L9.21775 21.46L9.21094 21.5C9.21094 21.5 6.64616 25.5608 5.71094 27C4.86901 28.2957 5.7761 27.0251 4.80979 28.5C3.52976 30.4529 3.34568 32.04 3.96677 35.75L4.76169 40.5L32.2177 41.0559V38.3989C32.2177 36.7671 33.5678 34.248 35.7177 31.8679C37.6428 29.738 38.2109 28.5 38.2109 28.5C38.2109 28.5 40.8341 21.6087 41.7177 21C42.6014 20.3913 43.2087 20 44.2768 20C44.7241 20 45.0859 20.001 45.3647 19.9407C45.5273 19.9055 45.6618 19.8496 45.7685 19.7603C46.4338 19.2034 46.0158 17.3525 44.6272 11.2034L44.6089 11.123L43.0007 4H15.4548L14.2878 8.63403ZM42.7798 28.8799C41.9607 30.4641 40.1198 33.1521 38.6887 34.8521C36.7998 37.0969 36.1738 38.842 36.4028 41.2219L36.7177 44.5L67.2177 45.052V40.6389C67.2177 37.364 66.3799 34.9231 63.9677 31.1709L60.7177 26.1169L52.4936 26.0581C44.4187 26.001 44.2417 26.052 42.7798 28.8799Z" fill="black"/>
</svg>
