<svg width="74" height="53" viewBox="0 0 74 53" fill="none" xmlns="http://www.w3.org/2000/svg">
<path d="M71.0703 4.39404C72.5823 3.59888 73.8203 2.28491 73.8203 1.47412C73.8203 0.516113 72.8113 0 70.9392 0C67.9062 0 63.8013 3.48608 59.5842 9.63892C58.3594 11.428 55.6482 13.928 53.5603 15.196C46.5093 19.4761 46.2153 19.759 47.4973 21.0591C49.6594 23.2529 53.4233 21.115 60.9062 13.4419C64.9844 9.26099 69.5583 5.18896 71.0703 4.39404Z" fill="black"/>
<path d="M33.7253 3.53003C34.9382 3.14502 35.7583 2.30591 35.5483 1.66504C35.1423 0.427979 31.1223 -0.227051 29.1323 0.620117C28.4792 0.897949 25.4583 4.2019 22.4204 7.96191C19.2832 11.845 15.2593 15.5979 13.1084 16.6489C8.83936 18.7351 8.1272 21.3311 11.6863 21.835C13.5513 22.0991 15.8994 20.272 22.7854 13.2C27.5894 8.26709 32.5122 3.91504 33.7253 3.53003Z" fill="black"/>
<path d="M25.2324 35.4771C27.2393 34.397 28.4163 33.1101 28.1152 32.3259C27.3933 30.4451 23.4094 30.6831 21.0093 32.75C19.8914 33.7119 16.6753 37.313 13.8623 40.75C11.0493 44.188 8.20142 47.002 7.53418 47.0049C6.86621 47.0081 4.97021 48.094 3.32031 49.418L0.320312 51.8259L2.97729 52.498C6.64624 53.426 8.71021 52.0791 15.7463 44.1621C19.0994 40.3899 23.3684 36.4819 25.2324 35.4771Z" fill="black"/>
<path d="M66.4363 32.188C66.8662 32.884 66.3723 33.8159 65.2454 34.438C64.1863 35.022 59.5422 39.22 54.9253 43.7671C46.9133 51.657 43.2034 53.9729 40.8774 52.5349C38.9224 51.3269 39.7954 50.1389 44.5703 47.51C47.1833 46.072 50.8064 42.9309 52.6223 40.532C54.4382 38.1321 57.0874 35.0061 58.5083 33.584C61.2224 30.8711 65.1904 30.1719 66.4363 32.188Z" fill="black"/>
</svg>
