<svg width="72" height="54" viewBox="0 0 72 54" fill="none" xmlns="http://www.w3.org/2000/svg">
<path fill-rule="evenodd" clip-rule="evenodd" d="M71.631 1.28266C71.631 1.83366 68.646 4.81839 64.9964 7.91517L58.3628 13.545L51.5013 10.0623C42.8323 5.66234 37.1983 4.87332 29.8021 7.02434C20.3875 9.76225 13.9723 16.2258 13.152 26.0713C13.0373 27.4489 13.0299 28.2342 13.152 29.6112C13.3107 31.4003 13.511 31.8783 13.8436 33.3094C13.8436 33.3094 14.0311 34.1649 14.1917 34.7019C15.2913 38.3769 17.2826 40.4007 19.8108 42.7588C23.3874 46.0945 29.649 49.4264 33.8116 50.2074C40.2514 51.4163 49.091 46.3626 51.7741 39.9398C53.4388 35.9543 52.0261 30.6343 51.1062 28.0247C50.6337 26.8051 50.9638 26.6587 49.0512 24.2264C44.8306 18.8597 37.5222 17.1298 31.9202 20.1707C28.8583 21.8327 27.147 24.4774 27.147 27.5454C27.147 27.9904 27.1203 28.2327 27.0974 28.4415C27.0598 28.7831 27.032 29.035 27.147 29.9381L27.7683 32.2651C27.7683 32.2651 28.4381 33.7998 29.1463 34.576C31.6126 37.2794 37.3223 38.1928 38.5008 35.12C39.3331 34.3139 37.7234 28.4244 36.1438 28.2614C36.1626 28.2016 36.1616 28.2003 36.1565 28.193C36.1518 28.1864 36.1438 28.1749 36.1438 28.1112C36.1438 27.2863 36.7637 26.6113 37.5212 26.6113C38.278 26.6113 39.4575 27.2863 40.1423 28.1112C40.4999 28.5423 40.5383 28.5456 41.2345 29.59C41.2345 29.59 41.6563 29.9381 42.1416 31.6787C42.627 33.4193 42.2789 34.6284 42.2789 35.12C42.2789 38.018 38.3349 40.6107 34.0964 40.6107C31.0057 40.6107 27.5988 37.9648 27.5988 37.9648C27.5988 37.9648 24.1999 34.2939 23.4805 31.3306C23.2391 30.336 23.1088 29.7562 23.1324 28.733C23.1661 27.2775 23.5191 26.4763 24.0422 25.1175C27.1561 17.0279 36.0537 12.7091 44.4689 16.4328C48.9092 18.3978 52.7113 22.5333 55.1369 28.2614C55.504 29.1281 55.1369 28.2614 55.9658 30.5245C55.9658 30.5245 56.8178 34.5444 55.9658 37.8349C54.2519 44.4537 50.8175 49.1764 43.923 52.0572C40.9831 53.2861 36.0239 53.6101 20.1815 53.6101C8.23487 53.6101 0.156717 53.2282 0.156717 52.6621C0.156717 52.1411 1.55734 47.8425 3.26961 43.1096C4.10378 40.8026 4.80446 38.6403 5.26767 36.9939C5.26767 36.9939 6.10746 32.9907 6.86573 30.4986C6.90292 30.3765 7.23474 29.0041 7.60683 27.4652L7.60707 27.4642C8.0919 25.4591 8.64502 23.1715 8.70369 22.999C11.0988 11.8025 17.9613 7.16422 27.0391 4.14849C34.9162 1.53045 44.2908 2.32461 51.9081 6.25435L57.895 9.34332L63.6419 4.43754C68.9721 -0.112294 71.631 -1.16229 71.631 1.28266ZM9.57032 36.1109C9.16642 37.2109 8.00887 40.2647 6.9963 42.8977L6.95947 42.9937C5.57046 46.6045 4.83988 48.5037 5.49074 49.5023C6.21264 50.6102 8.6337 50.6102 13.7397 50.6102H22.5737L17.9113 45.8604C15.3463 43.2487 12.5854 39.5358 11.7756 37.6108C10.4721 34.5131 10.218 34.3409 9.57032 36.1109Z" fill="black"/>
</svg>
