<svg width="87" height="52" viewBox="0 0 87 52" fill="none" xmlns="http://www.w3.org/2000/svg">
<path d="M0.156738 49.6409C0.156738 49.6425 0.156738 49.6442 0.156738 49.6458C0.157119 50.0505 0.254958 50.3772 0.428926 50.7439C0.782871 51.4897 1.51645 51.9193 2.30851 52H2.85923C3.47682 51.9375 4.08535 51.6635 4.53814 51.1632C4.71668 50.9659 5.5459 49.1053 6.3807 47.0286C10.4046 37.0195 14.9857 28.3762 20.191 20.9721C22.0088 18.3865 25.4751 13.844 25.563 13.932C25.5971 13.9662 25.4316 14.7273 25.1952 15.6236C23.4618 22.1931 21.6494 32.7964 20.7544 41.6063C20.4639 44.465 20.4971 45.3105 20.928 46.0077C21.6451 47.168 23.3833 47.4847 24.5346 46.6648C24.8374 46.4494 25.8691 44.9219 27.0968 42.8718C32.97 33.0637 38.8885 24.928 46.572 16.1006C47.8705 14.6087 48.9574 13.4113 48.9876 13.4398C49.0176 13.468 48.9583 13.8032 48.8555 14.1847C48.561 15.2786 47.8219 19.4097 47.5387 21.5455C47.1405 24.548 46.8082 28.7711 46.5793 33.7418C46.38 38.0666 46.3853 38.3006 46.6984 38.9394C47.1991 39.9615 48.0325 40.4404 49.1533 40.3504C50.3434 40.2549 50.6353 39.9722 53.0486 36.5796C60.2685 26.4294 67.7894 18.4591 77.4896 10.6782L78.3132 10.0177L77.858 11.2086C77.0457 13.3349 75.5575 18.1019 74.7726 21.0921C72.9629 27.9868 71.6145 35.9353 70.6888 45.166C70.2497 49.5435 70.249 50.1722 70.682 50.873C71.1016 51.5519 71.7805 51.9232 72.4958 52H73.0608C73.8823 51.9126 74.6749 51.445 75.1061 50.6166C75.2311 50.3767 75.4988 48.5437 75.7012 46.5433C77.4824 28.9352 80.1427 18.1691 85.9152 5.20626C86.9246 2.93972 87.0369 2.06717 86.4427 1.10588C85.7341 -0.0407163 84.2082 -0.337829 82.8926 0.414622C81.7982 1.04071 77.8023 3.91544 74.9968 6.09561C67.0839 12.2443 59.5344 19.7059 53.6236 27.2196L51.9192 29.3863L52.0389 27.8263C52.4456 22.5288 53.4934 16.3072 54.6435 12.3623C55.3179 10.049 56.3773 7.21728 57.4913 4.75003C58.2706 3.02431 58.3714 2.22667 57.9278 1.29187C57.3684 0.113193 55.6659 -0.367451 54.4488 0.30959C53.1509 1.03153 43.2078 11.8545 38.1662 18.0329C34.6465 22.3465 28.2434 31.0492 27.41 32.6524C27.2693 32.9235 27.1165 33.1079 27.071 33.0623C26.9399 32.9311 27.9914 26.7993 28.8457 22.7129C30.1729 16.3646 31.6917 10.9985 33.6289 5.81292C34.7963 2.68772 34.8732 1.87928 34.0965 0.901361C33.378 -0.00326508 31.9477 -0.263477 30.8829 0.316868C30.5843 0.479622 29.296 1.74391 28.0203 3.12626C16.0594 16.0874 7.95179 29.0347 1.33271 45.7453C0.502347 47.8413 0.157458 48.8794 0.156738 49.6409Z" fill="black"/>
</svg>
