<svg width="42" height="52" viewBox="0 0 42 52" fill="none" xmlns="http://www.w3.org/2000/svg">
<path d="M10.9058 20.8364C10.9058 10.1125 11.2997 0.945227 11.7819 0.462989C13.1212 -0.875104 20.7678 0.8939 23.3139 3.13201C24.5588 4.22541 26.5534 7.30146 27.7471 9.9681C30.4197 15.9388 32.9538 18.2939 38.3599 19.8313C42.3265 20.9581 42.3694 21.0238 39.1955 21.1264C34.132 21.2888 29.0912 18.1089 26.5618 13.1516C23.5251 7.20239 20.0564 4.2457 16.6735 4.72555C13.9054 5.11707 13.8863 5.23524 13.2931 26.0085C12.9648 37.4975 12.3047 47.4992 11.8261 48.2345C10.5107 50.2565 4.0279 52.6331 1.9748 51.8453C-2.84878 49.9951 2.77814 40.3324 8.6796 40.3324C10.7613 40.3324 10.9058 39.0672 10.9058 20.8364Z" fill="black"/>
</svg>
