<svg width="42" height="55" viewBox="0 0 42 55" fill="none" xmlns="http://www.w3.org/2000/svg">
<path d="M41.7461 2.08988C42.0581 3.71098 40.5672 3.83988 21.5682 3.83988C8.97098 3.83988 0.815955 3.4539 0.436072 2.83988C-1.19894 0.193887 1.70218 -0.193076 21.2452 0.0698636C39.5301 0.314981 41.441 0.502969 41.7461 2.08988Z" fill="black"/>
<path fill-rule="evenodd" clip-rule="evenodd" d="M38.6861 9.7808C42.5581 9.88285 41.69 15.0669 36.9361 20.2239C34.7361 22.6109 34.1255 23.01 32.9361 25.2019C31.9182 27.0776 31.1742 28.2144 31.095 30.347C30.9555 34.1035 32.295 34.8128 35.9051 38.6849C40.107 43.191 42.2571 48.711 41.2991 52.5288L40.719 54.8399H20.2481C6.67704 54.8413 2.63895 54.8418 1.43998 52.9969C0.932166 52.2159 0.933631 51.104 0.935584 49.5215V49.5186L0.936072 49.1919C0.936072 45.898 2.42606 43.2088 7.07816 38.1119C9.19999 35.7869 10.9361 32.9749 10.9361 31.8619C10.9361 30.1639 10.9361 28.8599 10.9361 28.8599C10.9361 28.8599 10.8278 26.9343 10.3281 25.8399C9.59463 24.2332 7.18314 22.5899 7.18314 22.5899C3.30814 18.586 0.439002 12.1429 1.80106 10.503C2.63309 9.50077 17.199 9.21586 38.6861 9.7808ZM5.93607 13.8538C5.93607 14.3289 7.73612 16.7979 9.93607 19.3399C12.136 21.8819 12.9281 22.4229 13.9361 24.9009C14.9709 27.4448 14.9361 31.8619 14.9361 31.8619C14.9361 31.8619 14.9361 31.3977 14.9361 31.9058C14.9361 34.7818 13.2871 37.6448 8.79398 42.5679C6.67216 44.8929 4.93607 47.7049 4.93607 48.8179C4.93607 50.7659 5.54203 50.8399 21.543 50.8399C36.2762 50.8399 38.0811 50.6609 37.543 49.2579C37.3792 48.8308 37.2298 48.346 37.1204 47.9056C37.0069 47.4485 36.9361 47.0393 36.9361 46.7918C36.9361 46.305 34.9541 43.6748 32.532 40.9478C30.1101 38.221 27.824 34.6048 27.4522 32.9148L27.4361 32.689C27.4361 32.689 27.2472 27.4413 28.1565 24.9009C29.1189 22.2122 32.1941 20.2268 32.1941 20.2268C34.8111 17.1729 36.6922 14.2539 36.375 13.7408C35.648 12.565 5.93607 12.6748 5.93607 13.8538Z" fill="black"/>
</svg>
