<svg width="75" height="65" viewBox="0 0 75 65" fill="none" xmlns="http://www.w3.org/2000/svg">
<path d="M25.4131 12.5V25V28.9137V29V34.9299L5.40308 35.5L8.94019 40.4709C15.979 50.363 20.8191 63.604 17.791 64.6821C17.168 64.9041 15.915 62.731 14.9702 59.791C13.261 54.4739 7.08813 43.1699 2.74414 37.406C1.46216 35.7041 0.413086 33.8059 0.413086 33.189C0.413086 32.448 4.0542 31.9719 11.1631 31.7839C19.427 31.5657 22.4131 31.3641 22.4131 30V24.9386V25V12.5C22.4131 2.05591 22.6602 0 23.9131 0C25.166 0 25.4131 2.05591 25.4131 12.5Z" fill="black"/>
<path d="M49.4131 29V34.9299L69.437 35.5L65.813 40.876C61.136 47.8169 56.3721 58.021 56.115 61.6521C55.8071 66.001 58.488 65.1831 59.8901 60.5C61.4851 55.1721 65.7061 47.0129 70.501 39.989C72.6521 36.8369 74.4131 33.749 74.4131 33.1289C74.4131 32.3621 71.0442 32 63.9131 32C55.9441 32 53.4131 31.6851 53.4131 30.6951C53.4131 30.5015 53.4131 30.5 53.4131 30.1242L53.4751 25L53.1941 12.75C52.9622 2.65308 52.6492 0.5 51.4131 0.5C50.177 0.5 49.864 2.65308 49.6321 12.75L49.3511 25L49.4131 29Z" fill="black"/>
</svg>
