<svg width="76" height="40" viewBox="0 0 76 40" fill="none" xmlns="http://www.w3.org/2000/svg">
<path d="M8.91648 21.1938L11.3115 17.1689L15.7895 8.68186C19.7395 1.19285 22.8115 -2.02712 22.8115 1.32078C22.8115 1.94089 20.9956 5.73777 18.7754 9.75974L14.7385 17.0718L12.3115 21.1379L7.48947 30.1657C4.8364 35.1318 2.02439 39.1938 1.23947 39.1938C-0.806424 39.1938 -0.675564 38.7898 4.3635 29.5449L8.91648 21.1938Z" fill="black"/>
<path d="M72.3584 8.95676C70.1567 13.5 68.1567 17 68.1567 17C68.1567 17 63.3276 25.1618 61.4284 28.8989C57.0754 37.4638 55.4084 39.6809 53.9834 38.7998C53.2185 38.3279 54.3474 35.3337 57.4604 29.5759L62.0705 21.0508L64.1567 17.5C64.1567 17.5 66.1567 13.5 68.6765 9.21775C73.0586 0.992895 74.1504 -0.333277 75.7365 0.647925C76.2456 0.961889 74.7256 4.7009 72.3584 8.95676Z" fill="black"/>
<path d="M35.1567 22.5L37.9846 17.6938L42.4714 9.45774C44.9394 4.92673 47.4055 0.9448 47.9516 0.606909C50.6015 -1.0303 49.9184 2.10471 46.0625 9.28391C44.5434 12.1123 42.1567 16.5 42.1567 16.5L39.3655 21.6938L34.8005 29.8989C29.5486 39.3369 29.3205 39.6269 27.8506 38.7178C27.1335 38.2749 28.1474 35.5198 30.7834 30.7448C32.9985 26.7309 35.1567 22.5 35.1567 22.5Z" fill="black"/>
</svg>
