<svg width="24" height="24" viewBox="0 0 24 24" fill="none" xmlns="http://www.w3.org/2000/svg">
<path d="M11.1113 6.25802C11.1875 5.99341 11.3709 5.77024 11.5961 5.66801C11.7022 5.61982 11.8839 5.5804 11.9999 5.5804C12.4075 5.5804 12.7512 5.83287 12.8841 6.22985C12.9214 6.34137 12.9374 7.17321 12.9374 9.00138V11.6136L14.6889 12.9273C16.2625 14.1078 16.451 14.2632 16.546 14.4595C16.9427 15.2789 16.0162 16.1153 15.2325 15.6453C15.1175 15.5764 14.181 14.8809 13.1514 14.0999C11.6348 12.9495 11.261 12.6443 11.1826 12.4924C11.0884 12.3098 11.0855 12.2288 11.0716 9.37521C11.0613 7.26433 11.0724 6.39312 11.1113 6.25802Z" fill="black"/>
<path fill-rule="evenodd" clip-rule="evenodd" d="M4.59369 2.56919C6.46888 1.12511 8.6076 0.27213 10.9216 0.0454425C11.5771 -0.0187762 13.1156 0.031755 13.8046 0.14013C15.0534 0.336583 16.1184 0.674599 17.2734 1.24118C18.5364 1.86077 19.4317 2.50502 20.4635 3.53669C21.4951 4.56841 22.1394 5.46373 22.759 6.72677C23.1705 7.56574 23.3775 8.11559 23.5992 8.95873C23.8945 10.0816 23.9694 10.6971 23.9694 12.0002C23.9694 13.3033 23.8945 13.9189 23.5992 15.0417C23.3775 15.8848 23.1705 16.4347 22.759 17.2736C22.1394 18.5367 21.4951 19.432 20.4635 20.4637C19.4317 21.4954 18.5364 22.1397 17.2734 22.7592C16.1173 23.3263 15.073 23.6576 13.7812 23.8671C12.8674 24.0152 11.1325 24.0152 10.2187 23.8671C8.92691 23.6576 7.88263 23.3263 6.7265 22.7592C5.46346 22.1397 4.56814 21.4954 3.53643 20.4637C2.50475 19.432 1.8605 18.5367 1.24091 17.2736C0.673816 16.1175 0.342504 15.0732 0.133066 13.7815C-0.0150586 12.8677 -0.0150586 11.1327 0.133066 10.219C0.254098 9.47238 0.500051 8.51023 0.730816 7.8806C0.937207 7.31754 1.51335 6.13769 1.80932 5.67208C2.49463 4.59401 3.68052 3.27241 4.59369 2.56919ZM19.1514 4.84872C17.4932 3.19047 15.4008 2.17713 13.115 1.92536C12.5916 1.86771 11.344 1.86874 10.8281 1.92724C8.59822 2.18022 6.48397 3.21321 4.84846 4.84872C2.90286 6.79432 1.87494 9.26651 1.87494 12.0002C1.87494 14.7339 2.90286 17.2061 4.84846 19.1517C6.79405 21.0973 9.26624 22.1252 11.9999 22.1252C14.7336 22.1252 17.2058 21.0973 19.1514 19.1517C21.097 17.2061 22.1249 14.7339 22.1249 12.0002C22.1249 9.26651 21.097 6.79432 19.1514 4.84872Z" fill="black"/>
</svg>
