<svg width="22" height="30" viewBox="0 0 22 30" fill="none" xmlns="http://www.w3.org/2000/svg">
<path fill-rule="evenodd" clip-rule="evenodd" d="M5.61865 5.93065C7.4292 3.46532 10.3359 0.0927577 10.7158 0.0170741C10.9663 -0.0332188 11.3506 0.0322109 11.5161 0.152816C11.8232 0.376449 13.4312 2.18748 14.6152 3.64354C18.8896 8.8994 21.4404 13.7182 21.9194 17.4424C22.269 20.1577 21.4668 23.1704 19.7773 25.4883C19.3447 26.082 18.354 27.1211 17.793 27.5698C14.4233 30.2641 10.0444 30.7529 6.21729 28.8613C3.3252 27.4316 1.10986 24.6284 0.341797 21.4272C0.137695 20.5781 0 19.4668 0 18.6743C0 15.3535 1.95557 10.918 5.61865 5.93065Z" fill="black"/>
</svg>
