<svg width="14" height="24" viewBox="0 0 14 24" fill="none" xmlns="http://www.w3.org/2000/svg">
<path d="M0.0344443 0.650365C0.0993857 0.409154 0.387472 0.102513 0.609151 0.03806C0.704366 0.010228 3.09597 -0.00393217 6.8572 0.000950639L12.9509 0.00876314L13.1297 0.120091C13.2283 0.181126 13.3655 0.316869 13.4343 0.421361C13.4993 0.519505 13.5325 0.58933 13.5481 0.689427C13.5574 0.750951 13.5603 0.824193 13.5603 0.922826C13.5603 1.1821 13.5393 1.26609 13.4343 1.42429C13.3655 1.52878 13.2283 1.66452 13.1297 1.72556L12.9509 1.83689L10.0447 1.853C7.42702 1.86765 7.16872 1.87546 7.44314 1.93406C7.50759 1.94773 7.5906 1.97165 7.67946 2.00144C7.82204 2.04978 7.98024 2.11228 8.09939 2.17038C8.23952 2.23874 8.34597 2.30173 8.54128 2.4697C8.79909 2.69187 9.2112 3.09714 10.0603 3.94089C10.9456 4.82029 11.7366 5.63474 11.8181 5.75095C11.948 5.93552 11.9661 5.99949 11.9651 6.26658C11.9646 6.51999 11.9431 6.603 11.8372 6.75876C11.6272 7.06785 11.4173 7.18064 11.052 7.18064C10.8675 7.18064 10.7771 7.17185 10.6824 7.1279C10.6384 7.1074 10.5935 7.07908 10.5379 7.0405C10.4446 6.97605 9.95681 6.50144 9.3821 5.91941L9.04177 5.57273L7.74782 4.2446L7.70095 16.8369L7.58962 17.0156C7.54323 17.0908 7.4529 17.1889 7.36648 17.2617C7.33962 17.2842 7.31325 17.3042 7.28835 17.3203C7.13015 17.4253 7.04616 17.4463 6.78689 17.4463C6.52712 17.4463 6.44362 17.4253 6.28542 17.3203C6.18093 17.2514 6.04519 17.1142 5.98415 17.0156L5.87282 16.8369L5.82595 4.34079L4.5906 5.60935C4.24587 5.96335 3.90749 6.30222 3.64235 6.56101C3.38503 6.81247 3.19655 6.98826 3.13747 7.02927C2.94655 7.1616 2.8821 7.18015 2.61501 7.18015C2.36208 7.17966 2.27956 7.15867 2.13015 7.05564C1.82351 6.8447 1.70192 6.62058 1.70144 6.26658C1.70095 5.99997 1.7195 5.93552 1.84939 5.75095C1.8987 5.68015 2.21023 5.35154 2.64577 4.90769C2.92702 4.62107 3.26003 4.28611 3.6072 3.94089C5.09841 2.45896 5.24245 2.32908 5.56814 2.17038C5.7615 2.07615 6.05691 1.9697 6.22439 1.93406C6.49831 1.87546 6.23317 1.86765 3.57595 1.853L0.622823 1.83689L0.443624 1.72556C0.224386 1.58884 0.0764365 1.36911 0.0222373 1.12253C-0.0109658 0.970677 -0.00852442 0.809056 0.0344443 0.650365Z" fill="black"/>
<path d="M1.82595 17.2192C1.9529 17.0346 2.19314 16.8447 2.35817 16.7983C2.57644 16.7368 2.93825 16.8056 3.14528 16.9482C3.25857 17.0263 3.97146 17.726 4.72927 18.5039C5.48708 19.2812 6.20192 19.9839 6.31814 20.0644C6.50173 20.1928 6.56814 20.2114 6.83376 20.2114C7.0989 20.2114 7.1653 20.1928 7.34939 20.0644C7.46511 19.9839 8.18044 19.2812 8.93776 18.5039C9.69558 17.726 10.4129 17.0224 10.5315 16.9399C10.721 16.8091 10.7859 16.7905 11.0525 16.7905C11.406 16.791 11.6306 16.9126 11.8416 17.2192C11.9446 17.3686 11.9656 17.4516 11.9656 17.7041C11.9661 17.9707 11.9475 18.0351 11.8181 18.2197C11.7366 18.3359 10.9456 19.1504 10.0603 20.0298C8.56911 21.5117 8.42507 21.6416 8.09939 21.8003C7.90603 21.8945 7.61062 22.0009 7.44314 22.0366C7.16872 22.0952 7.42702 22.103 10.0447 22.1176L12.9509 22.1338L13.1297 22.2451C13.2283 22.3061 13.3655 22.4419 13.4343 22.5464C13.5393 22.7046 13.5603 22.7881 13.5603 23.0478C13.5603 23.3071 13.5393 23.3911 13.4343 23.5493C13.3655 23.6538 13.2283 23.7895 13.1297 23.8506L12.9509 23.9619H0.622823L0.443624 23.8506C0.345479 23.7895 0.208272 23.6538 0.138937 23.5493C0.0349326 23.3916 0.0134482 23.3071 0.0134482 23.0512C0.0134482 22.6821 0.132101 22.4536 0.425558 22.2597L0.615987 22.1338L3.57253 22.1176C6.23269 22.103 6.49831 22.0947 6.22439 22.0366C6.12185 22.0146 5.97146 21.9668 5.82595 21.9111C5.73366 21.8755 5.64333 21.8369 5.56814 21.8003C5.24245 21.6416 5.09841 21.5117 3.6072 20.0298C2.72194 19.1504 1.93093 18.3359 1.84939 18.2197C1.78151 18.1235 1.74392 18.06 1.7239 17.9834C1.70534 17.9131 1.70144 17.8315 1.70144 17.7041C1.70144 17.4516 1.72292 17.3686 1.82595 17.2192Z" fill="black"/>
</svg>
