<svg width="67" height="45" viewBox="0 0 67 45" fill="none" xmlns="http://www.w3.org/2000/svg">
<path d="M0 19.7451C3.36936 23.7716 7.9505 24.6419 10.1746 22.7824C12.3986 20.923 14.1201 16.2383 19.5513 18.0408C17.0415 11.3833 24.5235 3.31134 31.8377 6.77216C33.7909 -2.25332 52.1797 -2.73599 53.4593 8.23162C69.8602 3.60208 73.0947 37.512 53.4593 34.9342C53.1694 43.8312 37.0727 47.1634 35.1891 38.718C31.9397 45.7013 18.9297 46.6503 17.5675 37.2126C8.82829 41.0385 1.0804 30.451 0 19.7451Z" fill="black"/>
<path d="M42.9517 1.29292C40.6658 1.23711 38.3538 1.77075 36.5745 2.77713C34.7953 3.78351 33.5659 5.2012 33.1657 7.05035C28.9748 22.0837 47.3232 19.0724 43.0489 9.6764L44.6465 8.80604C49.8911 21.0434 27.919 23.9907 31.3553 7.93109C25.0484 4.9469 18.7449 12.0415 20.8354 17.5866C21.0077 18.04 20.896 18.5881 20.5599 18.9378C20.2238 19.2875 19.6805 19.4208 19.2207 19.2666C16.8597 18.483 15.7406 19.0272 14.5723 20.0168C13.404 21.0064 12.4759 22.6027 11.082 23.7681C9.5601 25.0405 7.39815 25.2792 5.2593 24.7141C4.16741 24.4256 3.06463 23.9108 1.99729 23.1973C2.94141 27.0131 4.70166 30.5847 6.93923 33.0648C9.86838 36.3115 13.2753 37.7149 17.1167 36.0332C15.9309 28.2203 27.9182 24.4673 28.9735 33.9451L27.484 34.0462C26.4313 26.7329 17.0718 29.5763 18.9108 37.0282C19.4117 39.0578 20.0871 40.4533 21.292 41.3829C22.497 42.3125 24.0921 42.8045 25.7773 42.8345C29.1476 42.8946 32.739 41.0849 34.0954 38.1699C34.3189 37.6827 34.8715 37.3687 35.4044 37.4259C35.9373 37.4832 36.4106 37.9073 36.5256 38.4308C36.9077 40.144 37.895 41.1337 39.3635 41.7418C40.8321 42.3498 42.8057 42.4534 44.7458 42.0516C46.686 41.6498 48.5885 40.7553 49.965 39.5073C51.3415 38.2593 52.1885 36.7142 52.2484 34.8752C41.5995 30.2102 49.1112 17.9214 56.1159 21.9326L55.8171 23.2737C50.3947 19.756 43.436 30.9647 53.7 33.652C58.2519 34.2496 61.1838 32.812 63.1272 30.39C65.0707 27.968 65.958 24.414 65.7694 20.8812C65.5809 17.3485 64.3142 13.8806 62.2791 11.6824C60.244 9.48416 57.5732 8.42158 53.8794 9.46424C53.1677 9.65571 52.3516 9.10335 52.2648 8.37146C51.9861 5.98316 50.8257 4.3266 49.1495 3.15226C47.4734 1.97792 45.2383 1.34874 42.9517 1.29292Z" fill="black"/>
</svg>
