<svg width="162" height="174" viewBox="0 0 162 174" fill="none" xmlns="http://www.w3.org/2000/svg">
<path fill-rule="evenodd" clip-rule="evenodd" d="M34 0H0V34H13V21.5752L23.0029 31.4282L13.9932 40.5762L23 49.416L32.0137 40.5698L36.3643 44.9189L33.6904 50.3809C26.0703 65.9419 26.0693 81.8101 33.6865 97.8579C40.1328 111.439 54.7803 122.944 69.5195 126.004L75.0664 127.156L74.5 148.5L62 149.095V160.905L74.5 161.5L75.0947 174H86.9053L87.5 161.5L100 160.905V149.095L87.5 148.5L86.9336 127.156L92.4805 126.004C115.956 121.131 134.067 98.4512 133.976 74.04C133.944 65.6621 132.665 60.165 128.772 51.6841L125.643 44.8682L149 21.5112V34H162V0H128V13H139.489L117.179 35.3101L113.187 32.1479C102.562 23.7329 86.9775 19.7129 73.25 21.8452C64.7354 23.167 54.9619 27.2778 48.8789 32.0962C45.6729 34.6348 44.6816 34.981 43.4756 33.98C41.2402 32.124 41.6387 30.9438 46.002 26.498L50.0039 22.4199L41 13.584L31.9707 22.4448L22.5264 13H34V0ZM117.82 57.7822C112.84 47.1582 103.288 38.9331 92.0684 35.6089C73.3018 30.0488 52.7031 39.6021 44.1602 57.8252C41.8086 62.8408 41.5 64.7202 41.5 74C41.5 83.7451 41.7314 84.9868 44.709 91.2749C59.2588 121.991 102.741 121.991 117.291 91.2749C120.269 84.9868 120.5 83.7451 120.5 74C120.5 64.7012 120.193 62.8462 117.82 57.7822Z" fill="black"/>
</svg>
