<svg width="22" height="24" viewBox="0 0 22 24" fill="none" xmlns="http://www.w3.org/2000/svg">
<path fill-rule="evenodd" clip-rule="evenodd" d="M22 22.9785C21.9888 23.0259 21.9756 23.0767 21.9609 23.125C21.8613 23.4604 21.5776 23.7666 21.2544 23.8877C20.9971 23.9839 20.978 23.9839 11.0156 23.9839C1.05322 23.9839 1.03418 23.9839 0.776855 23.8877C0.453613 23.7666 0.169922 23.4604 0.0703125 23.125C0.0317383 22.9951 0 22.8481 0 22.7983C0 22.7212 0.740234 18.5654 1.43555 14.6992C2.03711 11.3545 2.60547 8.22656 2.63232 8.14404C2.70459 7.92188 3.02881 7.58252 3.28125 7.46484C3.48438 7.37061 3.57324 7.36621 5.7334 7.35205L7.97461 7.33691L7.79443 7.14111C7.38574 6.69678 7.0127 6 6.83691 5.35107C6.69189 4.81689 6.69092 3.77783 6.83545 3.25C7.28955 1.5874 8.5498 0.407227 10.2485 0.0537109C10.4155 0.019043 10.6426 0.00146484 10.8872 0C10.9121 0 10.9375 0 10.9629 0C11.1631 0.00146484 11.3716 0.0126953 11.5654 0.0336914C11.7515 0.0537109 11.9238 0.0825195 12.0625 0.119141C13.603 0.527344 14.771 1.69434 15.1958 3.25C15.3403 3.77783 15.3394 4.81689 15.1943 5.35107C15.0186 6 14.6455 6.69678 14.2368 7.14111L14.0566 7.33691L16.2979 7.35205C18.458 7.36621 18.5469 7.37061 18.75 7.46484C19.0024 7.58252 19.3267 7.92188 19.3989 8.14404C19.4526 8.31006 21.707 20.8511 22 22.5981V22.9785ZM12.3545 5.63525C13.3398 4.64941 12.9585 2.9624 11.6455 2.49902C11.3911 2.40918 10.9458 2.37402 10.6709 2.42236C9.69092 2.59375 8.97949 3.59863 9.13818 4.58643C9.38428 6.11426 11.2627 6.72656 12.3545 5.63525ZM15.2236 13.5527C15.0884 13.4658 14.9438 13.3931 14.8027 13.3433C14.5669 13.2603 14.3813 13.2363 13.875 13.2246C13.1982 13.209 13.1348 13.2148 12.7734 13.3286C12.0703 13.5493 11.4492 14.1743 11.2061 14.9048C10.7622 16.2397 11.1934 17.7598 12.2017 18.4111C12.6895 18.7266 13.002 18.8042 13.7812 18.8042C14.3643 18.8042 14.5107 18.7886 14.8125 18.6938C15.2852 18.5454 15.8008 18.2964 15.979 18.1299L16.125 17.9932V17.0044C16.125 16.0776 16.1191 16.0093 16.0312 15.9214C15.9438 15.834 15.875 15.8276 14.9966 15.8276H14.0552L13.9185 15.9648C13.7393 16.1436 13.7329 16.3726 13.9014 16.5728C14.0195 16.7134 14.0283 16.7153 14.5225 16.7285L15.0234 16.7417L15.0508 17.4209L14.8262 17.5635C14.3496 17.8662 13.7222 17.9648 13.2222 17.8164C13.0356 17.7612 12.8325 17.6196 12.6611 17.4399C12.5156 17.2876 12.3931 17.1074 12.3237 16.9292C12.2261 16.6807 12.2134 16.5688 12.2124 15.9673C12.2109 15.2925 12.2124 15.2842 12.3638 14.9766C12.6548 14.3853 13.1265 14.1152 13.8047 14.1509C14.2656 14.1753 14.4644 14.2705 14.7993 14.626C15.0884 14.9326 15.27 14.9912 15.5366 14.8647C15.8716 14.7061 15.9487 14.2852 15.7002 13.9727C15.5786 13.8193 15.4097 13.6724 15.2236 13.5527ZM7.11621 13.5269C7.07275 13.4355 7.00879 13.395 6.91113 13.3506C6.64453 13.2295 6.30713 13.3306 6.17871 13.5703C6.08838 13.7397 6.08887 18.2915 6.1792 18.4609C6.3291 18.7407 6.77686 18.8267 7.00146 18.6187C7.18848 18.4453 7.21875 18.3135 7.21875 17.6694V17.0796L7.66113 16.6304C7.90479 16.3833 8.11182 16.1914 8.12158 16.2036C8.13135 16.2163 8.44092 16.7432 8.80957 17.3745C9.17822 18.0063 9.52344 18.5703 9.57617 18.6284C9.66309 18.7236 9.71631 18.7339 10.1099 18.7339C10.4844 18.7339 10.5601 18.7207 10.6406 18.6401C10.7534 18.5273 10.7788 18.4399 10.5947 18.1016C10.4766 17.8838 10.2715 17.5625 9.94727 17.0635L9.3833 16.1968C9.20264 15.9204 9.07031 15.7188 9.0332 15.6646C8.96338 15.562 8.90625 15.4565 8.90625 15.4302C8.90625 15.4165 8.99365 15.313 9.13428 15.1577C9.26953 15.0083 9.45312 14.811 9.65479 14.6001C10.0776 14.1582 10.4165 13.7642 10.4341 13.6938C10.4561 13.6064 10.438 13.5327 10.3721 13.4448C10.2852 13.3276 10.2524 13.3193 9.85645 13.3066L9.43359 13.293L7.24219 15.6797L7.21875 14.6641C7.20264 13.9741 7.18848 13.6797 7.11621 13.5269Z" fill="black"/>
</svg>
