<svg width="67" height="45" viewBox="0 0 67 45" fill="none" xmlns="http://www.w3.org/2000/svg">
<path d="M0 19.7451C3.36936 23.7716 7.9505 24.6419 10.1746 22.7824C12.3986 20.923 14.1201 16.2383 19.5513 18.0408C17.0415 11.3833 24.5235 3.31134 31.8377 6.77216C33.7909 -2.25332 52.1797 -2.73599 53.4593 8.23162C69.8602 3.60208 73.0947 37.512 53.4593 34.9342C53.1694 43.8312 37.0727 47.1634 35.1891 38.718C31.9397 45.7013 18.9297 46.6503 17.5675 37.2126C8.82829 41.0385 1.0804 30.451 0 19.7451V19.7451Z" fill="#2F303B"/>
<path d="M42.9515 1.29304C40.6656 1.23723 38.3536 1.77087 36.5743 2.77725C34.795 3.78363 33.5657 5.20132 33.1655 7.05047C28.9746 22.0838 47.3229 19.0726 43.0487 9.67652L44.6463 8.80616C49.8909 21.0435 27.9188 23.9909 31.3551 7.93121C25.0482 4.94702 18.7446 12.0416 20.8351 17.5867C21.0075 18.0401 20.8957 18.5882 20.5596 18.9379C20.2236 19.2876 19.6803 19.421 19.2204 19.2667C16.8595 18.4831 15.7404 19.0274 14.5721 20.0169C13.4038 21.0065 12.4757 22.6028 11.0817 23.7682C9.55987 25.0406 7.39793 25.2793 5.25907 24.7142C4.16718 24.4257 3.0644 23.9109 1.99707 23.1974C2.94119 27.0133 4.70144 30.5848 6.939 33.0649C9.86816 36.3116 13.2751 37.715 17.1165 36.0334C15.9306 28.2205 27.9179 24.4674 28.9733 33.9453L27.4837 34.0463C26.4311 26.733 17.0715 29.5764 18.9106 37.0283C19.4114 39.0579 20.0869 40.4535 21.2918 41.3831C22.4967 42.3126 24.0919 42.8046 25.7771 42.8346C29.1474 42.8947 32.7388 41.0851 34.0952 38.17C34.3187 37.6829 34.8713 37.3688 35.4042 37.4261C35.9371 37.4833 36.4104 37.9075 36.5254 38.4309C36.9075 40.1442 37.8948 41.1339 39.3633 41.7419C40.8319 42.3499 42.8055 42.4536 44.7456 42.0518C46.6857 41.65 48.5883 40.7554 49.9648 39.5074C51.3413 38.2594 52.1883 36.7143 52.2482 34.8754C41.5993 30.2104 49.1109 17.9216 56.1157 21.9327L55.8169 23.2738C50.3945 19.7562 43.4358 30.9649 53.6998 33.6521C58.2517 34.2497 61.1836 32.8121 63.127 30.3901C65.0704 27.9681 65.9578 24.4142 65.7692 20.8814C65.5807 17.3486 64.3139 13.8808 62.2789 11.6825C60.2438 9.48428 57.573 8.4217 53.8792 9.46435C53.1675 9.65583 52.3513 9.10347 52.2645 8.37158C51.9859 5.98328 50.8254 4.32672 49.1493 3.15238C47.4732 1.97804 45.2381 1.34886 42.9515 1.29304V1.29304Z" fill="#973942"/>
</svg>
