<svg width="129" height="85" viewBox="0 0 129 85" fill="none" xmlns="http://www.w3.org/2000/svg">
<path d="M0 37.8316C6.45569 45.5464 15.2332 47.2138 19.4945 43.6511C23.7558 40.0884 27.0541 31.1126 37.4603 34.5662C32.6515 21.8104 46.9871 6.34453 61.0011 12.9755C64.7434 -4.31737 99.9763 -5.24217 102.428 15.7718C133.852 6.90158 140.049 71.873 102.428 66.934C101.873 83.9806 71.0313 90.3651 67.4223 74.1838C61.1965 87.5637 36.2692 89.3821 33.6594 71.2994C16.915 78.6297 2.07005 58.3442 0 37.8316V37.8316Z" fill="white"/>
<path d="M82.2957 2.47734C77.9159 2.37041 73.486 3.39287 70.0769 5.32109C66.6678 7.24931 64.3124 9.96562 63.5457 13.5086C55.5159 42.3125 90.6713 36.5429 82.4818 18.5401L85.5428 16.8725C95.5915 40.3192 53.4929 45.9664 60.0769 15.1961C47.9929 9.47837 35.9153 23.0716 39.9207 33.6961C40.2509 34.5647 40.0368 35.615 39.3928 36.285C38.7489 36.9549 37.7079 37.2105 36.8269 36.9148C32.3033 35.4136 30.1592 36.4563 27.9207 38.3523C25.6821 40.2484 23.904 43.3069 21.2332 45.5398C18.3172 47.9777 14.175 48.4351 10.0769 47.3523C7.98484 46.7996 5.87191 45.8131 3.8269 44.4461C5.63583 51.7573 9.00847 58.6004 13.2957 63.3523C18.9079 69.573 25.4355 72.2619 32.7957 69.0398C30.5237 54.0703 53.4913 46.8795 55.5134 65.039L52.6594 65.2327C50.6425 51.2203 32.7096 56.6683 36.2332 70.9461C37.1929 74.8349 38.487 77.5088 40.7957 79.2898C43.1043 81.0709 46.1606 82.0135 49.3894 82.0711C55.847 82.1862 62.728 78.7189 65.3269 73.1336C65.7552 72.2003 66.8139 71.5986 67.8349 71.7082C68.856 71.8179 69.7628 72.6306 69.9832 73.6336C70.7153 76.9161 72.6069 78.8124 75.4207 79.9773C78.2344 81.1423 82.0159 81.341 85.7332 80.5711C89.4504 79.8012 93.0958 78.0873 95.7332 75.6961C98.3705 73.3049 99.9934 70.3445 100.108 66.8211C79.7047 57.883 94.0971 34.3376 107.518 42.023L106.946 44.5925C96.5563 37.8527 83.2235 59.3286 102.889 64.4773C111.611 65.6223 117.228 62.8679 120.952 58.2273C124.676 53.5868 126.376 46.7774 126.014 40.0086C125.653 33.2398 123.226 26.5954 119.327 22.3836C115.428 18.1718 110.31 16.1359 103.233 18.1336C101.87 18.5005 100.306 17.4421 100.139 16.0398C99.6055 11.4638 97.3821 8.28987 94.1707 6.03984C90.9592 3.78981 86.6768 2.5843 82.2957 2.47734V2.47734Z" fill="#973942"/>
</svg>
