<svg width="987" height="421" viewBox="0 0 987 421" fill="none" xmlns="http://www.w3.org/2000/svg">
<g clip-path="url(#clip0)">
<path d="M881.031 0.0457824C856.317 -0.258778 831.764 0.914319 807.375 4.82698C760.346 12.3718 729.97 19.1592 681.719 33.3583C640.156 45.5893 598.745 60.5075 557.258 75.3926L566.59 92.1703C611.225 73.3619 650.048 63.6672 692.031 53.327C742.882 40.8029 795.81 27.2015 848.156 35.952C874.866 40.4169 884.355 53.7045 878.844 72.9208C877.914 76.1617 874.648 83.0915 873.447 83.8537L928.608 82.7154C931.223 81.0988 941.31 66.3058 945.906 56.7958C951.138 45.9723 951.756 29.5499 947.188 22.577C942.356 15.2018 931.011 7.93883 917.719 3.73328C907.987 0.654132 903.522 0.322932 881.031 0.0457824Z" fill="black"/>
<path d="M515.111 91.8882C515.111 91.8882 506.874 94.1022 505.608 95.5141L510.265 101.781L515.111 91.8882Z" fill="#EC4B88"/>
<path d="M611.546 106.955C603.81 109.266 583.165 114.969 583.165 114.969L584.699 127.497C593.996 125.149 601.5 123.462 609.262 121.096L611.546 106.955V106.955Z" fill="black"/>
<path d="M699.711 170.156C699.711 170.156 692.58 175.152 691.281 176.137L683.292 204.848C693.015 200.541 702.438 193.334 710.405 186.51L711.492 171.947L699.711 170.156V170.156Z" fill="black"/>
<path d="M675.125 232.963L668.579 252.275L668.36 262.336L707.25 242.606L708.422 215.121C699.714 220.541 685.651 228.207 675.125 232.963V232.963Z" fill="black"/>
<path d="M466.957 213.715L460 217.798L481.378 233.754L506.428 233.556L505.564 218.407C493.314 219.246 466.957 213.715 466.957 213.715V213.715Z" fill="black"/>
<path d="M440.68 307.498C414.37 316.053 386.791 322.604 359.813 328.639C315 339.494 270.016 342.744 254.813 336.233C246.621 332.725 240 319.707 240 314.439L194.563 325.858L191.594 332.421C187.761 340.901 187.814 342.388 192.188 350.171C196.715 358.227 208.109 363.943 223.313 365.764C245.718 368.449 302.7 362.893 329.688 355.389L451.194 314.991L440.68 307.498Z" fill="black"/>
<path d="M180 308L129.496 320.186C116.977 333.135 105.858 346.874 98.5313 363.296C84.9206 393.802 102.291 413.616 147.219 418.952C174.121 422.147 210.962 419.21 263.406 409.702C299.552 403.149 380.652 382.473 399.406 373.452C424.307 361.475 453.839 349.777 476.719 340.452C480.155 339.052 472.23 329.835 469.765 330.349C463.457 331.662 461.029 331.604 414.906 344.077C361.729 358.459 308.111 372.388 253.125 377.89C173.982 385.809 151.244 357.836 183.705 315.848L180 308Z" fill="black"/>
<path d="M158.16 90.4465L158.174 90.4274L158.188 90.408C158.858 89.4577 159.527 88.4971 160.198 87.5328C163.202 83.2175 166.259 78.8263 169.754 74.9377C173.969 70.2477 178.718 66.4146 184.561 64.4712C188.215 64.2421 191.745 66.2416 194.605 68.9802C204.637 81.0852 212.22 95.802 214.729 111.34C213.035 137.259 211.19 163.299 208.526 189.053L211.294 189.995C218.958 177.573 226.404 164.526 230.248 150.101C232.401 144.405 232.366 138.267 232.333 132.484C232.328 131.617 232.323 130.758 232.325 129.909C232.344 123.272 232.795 117.16 236.508 111.828C242.09 105.595 249.073 100.916 256.323 96.24C256.844 95.9043 257.366 95.5686 257.889 95.2322C264.622 90.9022 271.508 86.4734 277.318 80.7785L277.397 80.7011L277.463 80.6129C281.029 75.9048 286.279 71.9077 291.999 69.8864C297.703 67.8708 303.775 67.8458 309.154 70.888L309.319 70.9811L309.502 71.0304C322.901 74.6484 333.387 89.102 329.907 102.871L329.784 103.357L329.978 103.819C331.197 106.721 333.716 108.482 335.84 109.966L335.872 109.988C338.084 111.534 339.914 112.822 340.913 114.76C343.887 126.889 345.318 134.402 345.997 138.969C346.08 141.257 346.267 143.54 346.561 145.806L349.524 145.884L348.049 145.614C349.524 145.884 349.525 145.883 349.525 145.881L349.525 145.877L349.527 145.87L349.529 145.854C349.531 145.843 349.533 145.831 349.535 145.818C349.537 145.806 349.538 145.794 349.54 145.782C349.542 145.764 349.545 145.746 349.547 145.725C349.555 145.655 349.563 145.564 349.57 145.45C349.583 145.221 349.591 144.893 349.578 144.433C349.553 143.513 349.448 142.044 349.139 139.757C349.093 139.419 349.043 139.062 348.988 138.687C347.986 109.532 364.512 79.5574 392.174 69.0788L392.187 69.0737L392.201 69.0684C402.228 65.0494 412.543 65.5672 423.094 67.433C427.193 68.1578 431.284 69.0771 435.402 70.0023C436.592 70.2697 437.784 70.5377 438.979 70.8015C444.285 71.9726 449.624 73.0573 454.926 73.6056L455.109 73.6245L455.291 73.5987C462.712 72.5455 470.003 75.7246 475.432 80.9652C477.711 84.1926 480.854 85.6726 483.973 86.6902C485.01 87.0287 486.1 87.3321 487.156 87.6258C487.673 87.7696 488.181 87.9111 488.671 88.0533C490.178 88.4907 491.6 88.958 492.92 89.587C504.747 96.9502 513.398 109.108 519.872 121.645L521.258 124.329L522.559 121.604C524.081 118.414 525.734 115.342 527.406 112.235C528.426 110.339 529.453 108.43 530.462 106.474L530.49 106.419L530.514 106.362C533.922 98.1582 542.002 93.7766 550.699 93.2517C559.376 92.7281 568.319 96.0738 573.333 102.907C574.1 104.384 574.818 105.906 575.545 107.463L575.74 107.883C576.417 109.332 577.107 110.81 577.842 112.267C579.451 115.457 581.317 118.627 583.895 121.422C590.121 128.733 596.212 136.575 594.815 145.987L594.812 146.009L594.809 146.03C594.082 152.144 593.188 158.302 592.289 164.493C589.203 185.744 586.06 207.387 589.41 228.969L590.089 233.341L592.209 229.457C594.541 225.186 596.255 220.661 597.783 216.124L597.8 216.072L597.814 216.02C600.521 205.549 604.265 195.389 608.034 185.16C608.535 183.803 609.035 182.444 609.534 181.084C613.779 169.502 617.877 157.787 620.252 145.572L620.26 145.53L620.266 145.488C620.445 144.169 620.62 142.837 620.796 141.498C621.812 133.758 622.863 125.751 625.05 118.248C627.592 109.524 631.629 101.646 638.79 95.8668C641.398 94.4437 643.914 92.7925 646.378 91.1179C647.029 90.6759 647.674 90.2333 648.317 89.7925C650.166 88.525 651.994 87.2719 653.862 86.0866C658.872 82.9071 663.95 80.3641 669.702 79.7342C675.92 79.4045 681.193 82.2542 685.311 86.7207C689.452 91.2126 692.339 97.2635 693.682 103.017L694.586 106.893L696.465 103.384C700.901 95.0985 710.318 89.1385 720.068 89.5155C732.663 91.3168 745.246 90.4753 757.691 89.3676C759.214 89.232 760.735 89.0925 762.253 88.9532C773.196 87.9494 784.022 86.9563 794.849 87.5147C796.62 87.7469 798.403 87.92 800.185 88.093C803.604 88.4249 807.019 88.7565 810.334 89.5041C815.253 90.6134 819.522 92.5739 822.455 96.559C824.445 100.458 825.807 104.698 826.984 109.106C827.489 110.997 827.973 112.98 828.461 114.978C829.089 117.551 829.724 120.15 830.417 122.614L831.592 126.789L833.248 122.78C838.55 109.943 852.317 101.98 866.14 101.142L866.239 101.136L866.336 101.117C870.687 100.269 874.949 101.034 879.477 101.994C879.83 102.069 880.186 102.146 880.543 102.222C884.674 103.109 889.059 104.051 893.561 103.639L893.768 103.62L893.962 103.545C901.488 100.654 909.062 98.1113 917.002 98.857L917.014 98.858C929.522 99.9376 942.546 102.545 950.799 111.914C953.28 115.098 956.072 118.004 958.797 120.839C959.507 121.579 960.213 122.314 960.908 123.048C964.31 126.64 967.49 130.253 969.938 134.489L969.954 134.517L969.971 134.544C976.033 144.073 978.748 154.753 980.315 165.907C981.099 171.485 981.592 177.151 982.081 182.843L982.111 183.192C982.589 188.755 983.069 194.341 983.82 199.817L983.827 199.867L983.837 199.917C987.98 219.924 977.154 239.409 964.646 254.737L964.583 254.813L964.532 254.896C956.106 268.52 945.559 280.643 933.219 290.888C928.233 294.542 923.682 298.854 919.216 303.084C917.677 304.543 916.147 305.992 914.613 307.401C908.575 312.949 902.387 317.97 894.921 321.086C880.481 326.073 864.708 326.848 849.263 326.565L849.204 326.564L849.144 326.568C835.138 327.418 823.577 317.297 815.719 306.086L815.655 305.995L815.58 305.915C800.976 290.489 799.622 267.423 800.628 246.502C801.099 245.265 801.116 244.103 800.621 243.05C800.136 242.016 799.255 241.32 798.516 240.819C798.166 240.582 797.795 240.356 797.456 240.149L797.365 240.093C796.989 239.864 796.649 239.654 796.335 239.434C795.696 238.988 795.31 238.599 795.112 238.198L792.909 233.751L792.28 238.673C791.52 244.617 790.971 250.751 790.42 256.914C790.188 259.505 789.955 262.101 789.707 264.691C788.864 273.47 787.829 282.224 785.989 290.669C782.224 307.784 773.434 326.277 756.332 332.208C747.468 334.512 738.577 331.98 731.485 326.628C724.392 321.274 719.21 313.173 717.762 304.551C716.806 282.432 718.238 260.335 719.901 238.156C720.072 235.873 720.246 233.589 720.419 231.304C721.934 211.385 723.454 191.392 723.393 171.359L723.387 169.681L721.72 169.873C712.366 170.954 702.516 170.642 694.814 165.55L693.162 164.458L692.558 166.343C691.988 168.121 691.497 170.157 691.021 172.177C690.972 172.386 690.923 172.595 690.874 172.804C690.446 174.627 690.023 176.428 689.549 178.089C686.777 186.881 684.512 195.816 682.26 204.7L682.054 205.514C679.736 214.659 677.414 223.746 674.539 232.655C670.477 241.508 668.139 251.038 669.108 261.028C668.739 269.174 669.524 277.272 673.352 284.855C676.213 291.178 674.087 298.444 669.557 303.836L669.534 303.863L669.513 303.891C660.464 315.752 648.603 327.787 633.353 328.395C620.137 328.574 607.245 320.867 599.13 310.649L598.249 309.54L597.091 310.356C595.789 311.274 594.652 312.801 593.673 314.124L593.554 314.285C592.547 315.646 591.639 316.873 590.654 317.735L588.942 319.235L590.995 320.217C592.547 320.959 594.214 321.856 595.978 322.805C596.531 323.102 597.094 323.405 597.665 323.71C600.031 324.97 602.522 326.249 604.96 327.225L605.023 327.25L605.087 327.269C606.331 327.642 608.282 328.707 609.416 329.907C609.991 330.515 610.17 330.962 610.185 331.206C610.192 331.307 610.202 331.605 609.535 332.07L609.511 332.087L609.488 332.104C604.865 335.599 604.477 340.907 604.274 345.571C604.263 345.825 604.252 346.077 604.242 346.328C604.049 350.922 603.882 354.89 601.308 357.861C596.821 362.683 590.827 364.44 584.212 364.836C579.266 365.132 574.159 364.666 569.204 364.213C567.531 364.06 565.875 363.909 564.248 363.789C552.005 359.191 540.043 353.822 528.092 348.302C525.605 347.153 523.118 345.997 520.629 344.841C511.106 340.416 501.554 335.978 491.879 331.862L491.827 331.84L491.773 331.822C464.182 322.47 439.066 307.44 414.691 291.27L413.014 290.158L412.427 292.082C412.242 292.688 412.061 293.289 411.881 293.887C410.695 297.829 409.564 301.586 407.747 305.114L407.704 305.197L407.672 305.285C402.69 318.866 386.34 325.729 372.595 321.705L372.546 321.691L372.496 321.68C358.182 318.528 344.621 308.302 341.58 293.683L340.79 289.888L338.82 293.226C334.248 300.971 328.327 307.609 321.873 313.907C318.646 317.056 315.298 320.109 311.922 323.174L311.236 323.796C308.138 326.608 305.022 329.435 301.99 332.338C300.655 333.073 299.428 333.22 298.315 333.013C297.132 332.794 295.968 332.153 294.89 331.169C292.707 329.176 291.133 326.003 290.72 323.265L290.678 322.987L290.538 322.742C279.113 302.817 279.527 278.73 280.236 255.785L280.301 253.656L278.275 254.311C274.592 255.502 271.059 257.026 267.609 258.514L267.241 258.673C263.651 260.221 260.144 261.718 256.514 262.836L255.671 263.096L255.488 263.958C255.386 264.438 255.284 264.919 255.182 265.4C251.542 282.563 247.782 300.291 237.973 314.842L237.942 314.888L237.914 314.936C232.141 325.048 222.012 333.448 210.298 331.826C197.787 328.81 184.724 321.724 180.401 309.428L179.919 308.057L178.534 308.496C176.32 309.197 174.053 309.888 171.753 310.59C158.438 314.654 143.996 319.061 132.198 327.506C127.852 319.991 123.388 312.571 118.933 305.166C109.445 289.395 99.9954 273.687 91.7973 257.256L89.5724 252.797L88.9662 257.744C88.7879 259.199 88.613 260.656 88.438 262.115C86.5578 277.788 84.6639 293.574 78.3032 307.879L78.2517 307.995L78.2204 308.118C75.5879 318.434 69.0629 328.136 58.9147 331.659C56.6295 332.088 54.3025 332.687 52.0083 333.277L51.6273 333.375C49.1525 334.012 46.7105 334.63 44.2817 335.051C39.5193 335.877 34.9783 335.912 30.698 333.912C22.3088 324.975 16.1401 313.452 12.4665 301.581C13.3212 285.012 17.4447 268.93 21.8781 252.739C22.2644 251.328 22.6531 249.916 23.0422 248.503C27.1285 233.662 31.2521 218.685 33.0079 203.315L33.0201 203.208L33.0169 203.101C32.5493 187.038 35.007 171.327 37.4892 155.46C38.5362 148.767 39.5875 142.047 40.4256 135.26L40.4362 135.174L40.4368 135.087C40.5423 120.315 48.6176 107.138 58.8378 96.6334C62.3603 93.0808 66.7009 92.8388 71.7494 93.3954C72.9318 93.5258 74.1267 93.6964 75.3504 93.8712L75.5871 93.905C76.8838 94.09 78.2112 94.2766 79.5331 94.4101C82.1696 94.6765 84.8881 94.7448 87.5121 94.1374L87.8041 94.0698L88.0477 93.8952C88.9938 93.217 89.9098 92.521 90.8187 91.8304C92.6558 90.4344 94.4641 89.0605 96.434 87.8996C99.2983 86.2117 102.235 85.1596 105.497 85.4503C112.404 86.1783 117.86 89.9795 122.085 95.2778C126.325 100.594 129.261 107.349 131.075 113.742L131.114 113.883L131.181 114.013C134.965 121.443 133.855 130.292 129.983 137.739C123.476 147.06 125.93 158.822 130.754 167.671C131.356 169.148 131.949 170.473 132.498 171.499C132.777 172.019 133.063 172.495 133.351 172.885C133.609 173.234 133.987 173.68 134.491 173.942C134.768 174.087 135.166 174.218 135.636 174.158C136.126 174.096 136.507 173.85 136.769 173.57C137.216 173.091 137.387 172.445 137.476 171.972C137.669 170.952 137.697 169.403 137.586 167.304C138.468 161.099 139.08 154.831 139.688 148.6C139.937 146.051 140.186 143.508 140.452 140.978C141.377 132.183 142.519 123.486 144.638 114.969L144.646 114.937L144.652 114.905C146.475 105.932 152.017 98.5867 157.718 91.0316C157.865 90.8367 158.012 90.6417 158.16 90.4465ZM514.767 189.953L514.758 189.576L514.63 189.35C514.618 189.277 514.605 189.161 514.595 188.994C514.576 188.635 514.579 188.159 514.597 187.586C514.61 187.147 514.635 186.622 514.66 186.075C514.696 185.31 514.733 184.501 514.747 183.82C514.759 183.202 514.755 182.59 514.713 182.058C514.677 181.59 514.598 180.954 514.332 180.441C514.191 180.17 513.892 179.729 513.321 179.514C512.702 179.282 512.14 179.45 511.786 179.643C511.453 179.825 511.191 180.083 510.995 180.308C510.811 180.519 510.629 180.767 510.448 181.042C494.277 199.014 472.328 210.899 450.385 221.097L448.21 222.108L450.071 223.621C465.386 236.072 481.658 247.536 497.865 258.954C504.733 263.792 511.59 268.623 518.357 273.516L521.275 275.627L520.718 272.069C516.48 244.996 515.427 217.454 514.767 189.953Z" fill="white" stroke="black" stroke-width="3"/>
<path d="M173.312 42.2957C160.784 46.3692 153.265 58.5612 146.007 68.8505C140.204 76.5447 134.177 84.3133 132.227 93.9141C127.937 111.155 127.626 129.035 125.125 146.546C125.603 155.2 123.578 152.291 121.156 146.334C116.399 137.648 114.204 126.492 120.312 117.827C124.371 110.074 125.646 100.657 121.562 92.6394C117.867 79.6106 109.524 64.8208 94.6875 63.2644C87.2947 62.5991 81.6494 68.0902 76.2188 71.9832C66.6671 74.1942 54.8791 66.7459 46.8125 74.8894C36.4604 85.5281 28.0912 99.0594 27.9818 114.383C25.1841 137.04 19.8932 159.465 20.5625 182.452C16.7489 215.836 1.66691 247.388 0 281.077C3.74682 293.306 10.1124 305.229 18.8438 314.452C28.3596 319.083 38.7989 314.189 48.3438 312.421C59.1944 308.706 66.0029 298.438 68.7188 287.796C75.7833 271.907 77.4162 254.238 79.5 237.233C91.819 261.923 107.011 285.08 120.781 309.014C134.558 298.593 152.353 294.195 168.031 289.233C172.62 302.283 186.367 309.563 199.062 312.608C211.704 314.401 222.349 305.343 228.262 294.987C238.54 279.741 242.276 261.113 246 243.577C253.44 241.286 260.313 237.459 267.781 235.046C267.075 257.917 266.612 282.444 278.281 302.796C279.202 308.902 285.189 316.77 291.938 312.858C305.056 300.274 319.821 289.109 329.156 273.296C332.355 288.671 346.529 299.217 361.219 302.452C375.607 306.664 392.832 299.539 398.125 285.108C400.296 280.894 401.522 276.361 402.906 271.827C427.308 288.015 452.555 303.134 480.337 312.55C504.689 322.908 528.231 335.305 552.969 344.577C565.687 345.492 581.758 348.633 591.469 338.171C597.766 330.94 591.445 318.649 599.438 312.608C603.33 309.896 597.472 306.011 594.562 305.139C589.849 303.253 584.843 300.158 580.688 298.171C583.032 296.118 584.869 292.391 587 290.889C595.332 301.379 608.639 309.396 622.438 309.202C638.452 308.574 650.697 295.975 659.75 284.108C664.52 278.431 666.947 270.542 663.75 263.514C660.055 256.212 659.281 248.357 659.656 240.296C658.689 230.57 660.963 221.245 664.984 212.507C670.794 194.531 674.343 175.863 680.031 157.827C681.116 154.029 681.934 149.534 683.031 146.108C691.193 151.504 701.497 151.761 710.938 150.671C711.074 195.187 703.376 239.52 705.312 284.014C708.302 302.146 726.994 317.885 745.812 312.952C763.737 306.77 772.707 287.538 776.5 270.296C780.219 253.225 780.663 234.996 782.812 218.171C784.274 221.121 789.979 221.311 788.187 225.483C787.158 246.466 788.398 270.263 803.535 286.254C811.472 297.578 823.46 308.272 838.28 307.372C853.786 307.656 869.791 306.885 884.5 301.796C899.972 295.357 909.928 281.085 923.187 271.378C935.667 261.024 946.333 248.767 954.853 234.992C967.416 219.598 978.64 199.633 974.351 178.92C971.309 156.737 972.735 132.623 960.281 113.046C955.201 104.254 947.151 98.1712 941 90.2644C932.325 80.3865 918.731 77.7533 906.188 76.6707C897.862 75.8888 889.992 78.5619 882.469 81.4519C873.24 82.2972 864.462 77.1259 855.094 78.9519C840.832 79.8161 826.475 88.0329 820.906 101.514C818.415 92.6599 816.964 83.2137 812.781 75.0769C806.31 66.1541 793.977 66.6391 784.031 65.3269C759.067 64.0263 734.114 70.904 709.25 67.3269C698.849 66.8905 688.882 73.2134 684.188 81.9832C681.404 70.0567 672.214 56.7967 658.625 57.5457C646.403 58.865 637.329 68.3189 627 73.9207C611.899 86.0151 610.239 106.842 607.824 124.593C603.124 148.766 591.587 171.052 585.406 194.952C583.888 199.461 582.207 203.888 579.938 208.046C575.653 180.446 582.092 152.84 585.344 125.514C586.856 115.323 580.222 106.965 574.062 99.7332C569.158 94.4289 566.871 87.5829 563.656 81.4207C552.926 66.6343 525.541 67.3583 518.173 85.0941C515.563 90.158 512.708 95.1153 510.25 100.264C503.711 87.6013 494.884 75.1436 482.688 67.5769C476.873 64.7724 469.645 65.1271 465.625 59.2957C459.943 53.7619 452.165 50.2796 444.125 51.4207C423.28 49.2649 401.515 38.6352 380.688 46.9832C350.134 58.5571 332.983 93.2083 337.094 124.921C337.804 139.837 342.104 155.839 340.5 170.046C338.817 159.037 338.559 146.256 337.4 134.584C336.077 120.848 335.218 106.818 331.375 93.5457C329.008 88.6915 322.468 87.4541 320.406 82.5457C324.127 67.8255 312.962 52.676 298.938 48.8894C287.258 42.2842 272.776 49.1593 265.312 59.0144C253.056 71.0289 235.863 77.3298 224.375 90.2019C216.276 101.728 222.631 116.454 217.863 128.948C214.087 143.172 206.733 156.081 199.062 168.514C201.736 142.675 203.584 116.554 205.281 90.5769C202.745 74.6331 194.98 59.5878 184.75 47.2644C181.703 44.3261 177.679 41.9389 173.312 42.2957V42.2957ZM400.219 120.358C400.219 100.358 430.219 100.358 430.219 120.358C430.219 144.313 400.219 140.678 400.219 120.358ZM807.25 139.983C804.384 148.848 798.402 158.032 793.406 164.577C793.472 157.796 793.199 151.007 793.625 144.233C798.292 143.761 803.596 141.484 807.25 139.983ZM502.312 169.296C502.972 196.801 504.027 224.429 508.281 251.608C485.477 235.117 461.824 219.458 440.062 201.764C462.067 191.538 484.292 179.526 500.688 161.264C503.558 156.779 501.554 167.96 502.312 169.296ZM910.219 180.358C910.219 205.301 871.116 240.358 860.219 240.358C850.219 240.358 850.219 230.358 850.219 200.358C850.219 170.171 870.219 150.358 890.219 150.358C908.99 150.358 910.219 155.416 910.219 180.358Z" fill="black"/>
<path d="M173.469 50.2021C161.582 57.3281 155.716 70.99 146.594 80.9833C136.078 95.6662 138.172 114.706 134.626 131.569C131.832 152.273 132.622 174.639 129.938 194.483C122.406 186.245 125.587 174.101 120.644 164.611C116.316 151.538 105.701 139.079 108.812 124.608C110.058 116.281 118.356 109.829 115.562 100.89C113.281 94.3677 111.638 87.4847 108.5 81.4208C104.818 76.6043 99.5072 71.7265 93.2812 71.1083C86.1647 71.5182 83.5722 80.4439 76.2188 80.0771C68.7634 81.0462 61.3479 79.1457 53.9062 78.8896C45.4167 88.6882 35.5467 99.5695 36.5312 113.483C33.899 134.744 27.7957 155.795 29.1562 177.452C26.3321 212.021 11.278 244.543 7.78125 279.077C9.6257 288.691 16.6643 296.236 20.375 305.14C23.6448 311.083 30.9323 307.249 36 307.077C45.494 305.814 57.4733 301.308 58.5625 290.483C62.7767 280.725 67.1977 271.05 68.3125 260.327C70.1811 247.489 71.7992 234.63 73.4375 221.796C71.9003 217.513 77.8871 219.528 80.0938 219.452C82.2712 221.469 82.393 226.291 84.4688 228.952C95.665 252.84 110.176 274.975 123.469 297.765C136.909 289.512 152.481 285.996 167.281 280.921C175.279 262.554 175.195 241.966 181.188 222.983C184.14 232.663 187.99 244.192 181.219 253.296C176.295 259.789 171.577 267.809 174.125 276.233C174.254 283.702 175.702 292.26 182.969 296.046C190.382 302.039 201.732 308.294 210.906 302.39C225.209 291.807 230.032 273.345 235.125 257.202C237.007 250.987 236.954 243.863 238.844 237.983C245.059 235.427 251.347 233.198 257.424 230.347C263.347 228.047 269.334 225.574 275.719 224.983C276.808 245.322 272.919 266.657 279.844 286.202C282.384 292.79 285.554 299.019 288.219 305.608C302.058 292.341 317.885 279.875 326.219 262.234C330.457 247.482 333.399 231.78 329.562 216.608C328.67 211.921 330.049 206.409 333.156 203.265C333.325 211.61 339.862 217.327 345.281 222.733C347.253 226.04 344.959 229.996 346.031 233.671C346.508 238.979 344.766 245.621 339.031 247.046C334.24 251.44 337.961 258.436 336.25 263.952C335.837 276.513 344.188 289.139 356.656 292.077C365.972 296.598 379.417 297.839 386.281 288.577C393.477 280.565 394.853 269.237 398.344 259.671C405.672 263.621 412.467 268.643 419.781 272.827C436.083 284.07 453.169 293.842 471.895 300.297C499.41 311.591 526.041 325.135 553.5 336.577C563.14 337.337 573.766 339.004 582.875 335.577C590.46 329.702 584.239 318.707 589.687 311.765C539.299 287.136 495.677 251.477 449.662 219.655C443.435 214.622 435.545 210.567 431.344 203.546C430.059 196.668 438.734 193.167 443.812 190.952C465.547 180.539 487.153 167.751 501.156 147.64C507.194 141.794 509.067 133.348 508.187 125.202C508.114 112.043 502.688 99.4289 493.844 89.7958C488.295 81.3534 480.619 72.1545 469.531 72.5458C461.645 69.5728 457.624 58.3537 448 59.7021C430.502 58.8124 413.701 52.1579 396.187 51.4521C377.563 53.5824 360.55 66.0631 352.584 83.0652C346.22 95.3605 343.339 109.374 345.227 123.229C346.039 139.74 349.674 156.168 349 172.702C348.713 178.767 344.342 182.618 339.75 185.608C338.534 186.188 339.811 180.709 338.937 178.702C338.484 176.264 333.717 177.359 332.875 174.046C331.251 167.869 332.259 161.149 331.013 154.785C328.949 136.151 328.441 117.055 325.031 98.7333C321.698 92.7073 312.696 90.8202 311.812 83.3896C316.153 72.4932 308.649 59.422 297.25 57.4208C291.789 52.8653 283.931 53.3507 278.562 57.7958C268.549 66.2832 259.284 75.5231 247.625 81.8896C240.174 87.415 228.967 91.9161 228.125 102.483C227.266 111.705 229.865 121.328 225.781 129.983C218.9 155.235 203.868 176.857 188.701 197.839C185.069 205.25 186.534 199.629 187.574 194.525C192.398 167.031 193.086 139.022 196.003 111.281C196.054 101.377 199.932 90.9008 194.781 81.7021C190.387 70.4632 185.852 57.9888 176.125 50.4208C175.264 50.1656 174.361 50.1115 173.469 50.2021H173.469ZM658.281 65.3583C649.819 67.6724 643.136 74.0637 635.312 77.8583C625.652 83.904 620.268 94.7364 618.96 105.87C615.641 124.312 613.336 143.093 605.336 160.201C599.718 173.476 596.522 187.566 591.87 201.127C587.878 209.42 584.554 219.19 577.219 225.265C575.177 225.101 574.813 220.812 573.719 219.233C570.98 208.85 571.295 197.72 570.5 186.983C570.249 165.054 575.616 143.577 577.844 121.952C575.736 109.473 562.456 102.904 559.719 90.7333C556.881 83.9971 550.119 78.3953 542.469 79.5146C536.031 78.2641 528.503 80.9353 526.375 87.5771C518.421 99.6848 512.533 113.392 509.629 127.577C509.873 168.272 510.69 209.15 515.719 249.546C517.499 261.661 524.978 272.174 535.438 278.358C544.08 283.678 552.985 288.927 560.656 295.39C568.657 299.079 577.006 292.561 580.312 285.546C582.349 282.005 588.838 278.319 591.25 283.608C598.669 293.643 610.436 301.087 623.094 301.546C636.327 299.601 645.818 288.567 653.935 278.888C658.079 274.198 658.232 266.818 654.188 262.14C650.108 251.378 652.802 239.574 651.25 228.452C653.472 216.564 660.564 206.12 661.719 193.952C667.766 168.627 678.188 144.049 678.267 117.578C678.384 116.831 678.776 122.712 679.463 124.898C680.336 132.951 685.55 140.981 694.031 142.171C702.246 144.269 710.713 142.381 718.844 141.515C719.93 179.437 714.255 217.129 713.535 255.009C713.305 268.58 709.564 284.649 719.438 295.858C726.084 304.243 738.844 309.488 748.531 303.015C760.598 295.237 765.658 280.544 769.36 267.411C772.025 246.34 774.043 225.076 776.077 203.893C774.599 193.807 784.453 187.36 784.344 177.577C786.523 164.118 784.692 149.802 785.812 136.671C796.187 136.668 809.649 133.172 812.562 121.765C814.782 112.723 814.581 103.022 810.562 94.4833C807.321 88.7787 809.678 78.5407 801.875 76.4521C785.707 71.814 768.385 73.0054 751.793 74.5479C737.846 76.9901 723.717 76.9536 709.688 75.4521C701.579 74.5801 694.47 79.5871 690.892 86.6026C686.548 94.8482 679.178 102.155 678.406 111.796C678.186 100.932 678.404 89.5595 675.188 79.2333C671.665 72.7849 666.911 64.4958 658.281 65.3583V65.3583ZM902.656 84.3271C892.423 84.4406 882.781 93.3262 872.594 88.4833C859.666 85.1835 844.093 86.5806 833.969 95.8271C828.044 103.325 824.793 112.557 820.719 121.14C816.237 133.442 815.593 147.356 807.257 158.088C800.872 168.389 793.693 178.366 788.219 189.171C785.737 195.85 784.745 203.785 787.281 210.515C788.683 214.169 792.646 215.47 795.594 217.108C797.098 231.376 794.819 246.269 798.312 260.358C802.507 274.423 812.737 286.027 823.312 295.733C830.495 300.35 840.057 299.328 848.374 299.343C864.016 298.325 881.498 298.172 893.656 286.858C907.622 272.121 925.614 261.267 938.099 245.21C944.828 233.462 954.052 223.496 961.082 212.078C966.214 200.919 969.103 188.302 965.75 176.14C963.799 157.048 964.142 136.714 954.938 119.296C949.37 109.61 939.695 103.102 933.625 93.7333C925.067 86.7596 913.212 85.4831 902.656 84.3271V84.3271ZM408.719 112.171C415.755 113.673 424.7 115.371 428.75 121.89C426.549 128.243 418.405 129.852 412.875 132.077C406.947 135.356 405.448 132.651 406.293 126.735C406.145 121.726 406.011 116.707 406.344 111.702C407.135 111.858 407.927 112.015 408.719 112.171H408.719ZM897.344 152.827C902.621 152.594 903.504 158.628 903.414 162.631C904.419 175.007 907.14 189.244 899.344 200.046C890.742 213.732 881.116 227.72 867.531 236.608C864.407 238.149 858.776 241.345 857.375 236.015C852.921 225.249 854.851 212.919 855.844 201.64C858.151 186.193 863.57 171.079 871.844 157.921C878.269 151.075 889.098 154.678 897.344 152.827V152.827Z" fill="white"/>
<path d="M24.549 295.988C22.8761 293.123 20.0752 287.806 18.345 284.207L15.4569 278.2L19.0734 260.545C20.1036 255.516 21.0935 250.861 21.8578 247.413C22.2403 245.688 22.5645 244.273 22.808 243.269C22.9302 242.765 23.0288 242.378 23.1021 242.112C23.1296 242.012 23.1508 241.939 23.1662 241.889C23.2482 241.725 23.31 241.568 23.3468 241.473C23.4186 241.289 23.4971 241.068 23.5793 240.827C23.7445 240.34 23.9448 239.707 24.1656 238.978C24.6084 237.515 25.1487 235.618 25.6815 233.634C30.4067 216.036 32.1274 208.983 32.9439 203.748C33.3995 200.827 34.5402 195.743 35.4679 192.511C36.6495 188.396 37.2689 180.104 37.2689 169.964C37.2689 158.383 37.943 151.121 39.7452 142.922C41.1306 136.619 42.5138 129.445 42.8034 126.989C43.0063 125.269 43.1936 123.669 43.3681 122.179C44.6058 111.608 45.1968 106.561 46.107 103.305C46.9461 100.303 47.9825 99.0213 50.5867 95.8009C50.9588 95.3408 51.3628 94.8411 51.8029 94.2911L57.4427 87.2432L63.4597 87.9202C67.5236 88.3775 73.9788 88.351 77.9244 87.858C80.7542 87.5045 82.9104 87.0649 84.8206 86.2057C86.7632 85.332 88.3093 84.0896 90.0327 82.3661L93.0273 79.3715L96.6763 81.4011C99.5867 83.02 100.482 83.5413 101.37 84.9983C101.864 85.8089 102.366 86.95 103.022 88.7809C103.653 90.5425 104.388 92.8312 105.383 95.9278L105.488 96.2529L108.352 105.168L104.422 113.561C102.504 117.658 101.351 120.335 100.772 123.015C100.188 125.725 100.214 128.333 100.413 132.236C100.61 136.078 100.934 138.826 101.972 142.051C102.989 145.209 104.672 148.763 107.459 154.254C113.301 165.768 115.413 172.693 117.878 188.646C118.217 190.843 118.854 192.71 120.14 194.717C121.385 196.661 123.207 198.686 125.809 201.255C127.648 203.071 129.398 204.677 130.745 205.803C131.411 206.359 132.019 206.834 132.511 207.16C132.743 207.314 133.032 207.491 133.332 207.617C133.472 207.676 133.734 207.775 134.06 207.807C134.348 207.836 135.122 207.85 135.762 207.21L134.348 205.795L135.762 207.21C136.069 206.903 136.225 206.561 136.287 206.42C136.369 206.232 136.433 206.038 136.485 205.864C136.588 205.513 136.684 205.087 136.774 204.62C136.956 203.678 137.147 202.406 137.343 200.883C137.736 197.828 138.164 193.642 138.586 188.805C139.431 179.124 140.262 166.759 140.751 155.446C141.35 141.579 142.516 129.559 143.593 125.434C144.668 121.314 145.59 115.395 145.627 112.171C145.768 100.117 148.354 92.1216 154.79 83.5247C160.332 76.1207 165.369 69.602 169.118 64.9402C170.995 62.6062 172.536 60.7547 173.649 59.4949C173.871 59.244 174.072 59.021 174.252 58.8255C174.507 59.149 174.801 59.5482 175.131 60.0225C176.253 61.6385 177.645 63.9245 179.097 66.5218C182.01 71.7293 185.052 77.9824 186.57 82.2719L189.798 91.393L188.265 107.849C187.398 117.151 185.559 138.456 184.177 155.195C182.794 171.958 180.674 189.89 179.492 195.084C176.677 207.451 174.795 215.615 173.555 220.784C172.935 223.371 172.48 225.192 172.151 226.408C171.986 227.019 171.859 227.456 171.763 227.754C171.697 227.959 171.662 228.046 171.657 228.06C171.502 228.341 171.406 228.647 171.363 228.785L171.361 228.793C171.288 229.024 171.211 229.305 171.132 229.616C170.971 230.241 170.781 231.067 170.574 232.026C170.159 233.95 169.663 236.47 169.185 239.129C167.019 251.175 165.198 260.385 163.767 266.571C163.05 269.673 162.443 271.967 161.95 273.464C161.786 273.964 161.645 274.34 161.531 274.612C161.108 274.693 160.647 274.803 160.198 274.917C159.228 275.162 158.001 275.509 156.61 275.925C153.823 276.758 150.31 277.888 146.736 279.091C139.664 281.471 132.103 284.218 129.552 285.52L126.448 287.103L111.714 262.442C103.079 247.988 94.0963 231.363 91.7215 225.503C90.4842 222.449 89.1665 219.542 88.0336 217.309C87.4689 216.197 86.9364 215.224 86.4719 214.475C86.2408 214.103 86.0088 213.757 85.7833 213.467C85.597 213.227 85.2778 212.84 84.8522 212.571C84.3142 212.23 83.6114 212.033 83.0532 211.904C82.4211 211.758 81.6696 211.634 80.8595 211.532C79.2355 211.328 77.2609 211.201 75.3079 211.196L68.4784 211.177L66.7058 211.173L66.4881 212.932L65.7726 218.714C62.9843 241.244 61.0984 255.135 59.4393 264.085C57.7724 273.078 56.3768 276.799 54.7278 279.211C52.8815 281.912 51.0784 286.479 50.6635 289.573C50.3588 291.844 50.0868 292.65 49.5952 293.259C49.0319 293.958 47.9977 294.633 45.3565 295.972C42.457 297.441 36.8312 299.058 33.0102 299.49L26.9911 300.171L24.8218 296.455L24.549 295.988ZM173.486 57.9754C173.454 57.955 173.449 57.9476 173.475 57.9665C173.477 57.9684 173.481 57.9713 173.486 57.9754ZM23.1959 241.8C23.1959 241.801 23.1919 241.813 23.1836 241.834C23.1918 241.809 23.1959 241.799 23.1959 241.8Z" stroke="black" stroke-width="4"/>
<path d="M317.619 262.944C309.699 273.42 300.786 283.329 291.082 292.192C290.945 291.885 290.808 291.578 290.671 291.272C287.328 283.798 284.035 276.433 284.06 268.727L284.06 268.702L284.059 268.676C283.803 257.18 283.743 245.693 283.684 234.186C283.657 229.072 283.631 223.955 283.587 218.831L283.571 216.996L281.741 216.855C275.451 216.368 269.521 217.618 263.873 219.433C260.519 220.511 257.103 221.851 253.773 223.158C251.622 224.001 249.508 224.83 247.47 225.566L247.156 225.679L246.896 225.888C245.771 226.792 244.245 227.45 242.389 228.08C241.825 228.272 241.208 228.467 240.57 228.668C239.263 229.082 237.864 229.524 236.64 230.024C234.76 230.793 232.818 231.865 231.491 233.669C230.152 235.488 229.627 237.787 229.99 240.631C228.842 250.43 226.635 260.031 222.871 268.766L222.827 268.868L222.794 268.974C220.53 276.395 217.139 284.068 212.183 290.171C211.38 290.929 210.595 291.825 209.869 292.654C209.794 292.739 209.72 292.823 209.647 292.907C208.793 293.88 207.995 294.768 207.164 295.497C205.54 296.922 204.144 297.456 202.424 296.854L201.763 298.742L202.106 296.771C194.825 295.506 188.257 290.819 183.068 285.292C183.076 283.328 182.852 281.34 182.595 279.435C182.519 278.868 182.44 278.311 182.362 277.763C182.133 276.148 181.914 274.6 181.793 273.059C181.474 268.978 181.914 265.585 184.499 262.816L184.659 262.645L184.775 262.441C185.495 261.177 186.334 259.917 187.231 258.57C187.347 258.396 187.464 258.22 187.581 258.042C188.591 256.523 189.649 254.9 190.542 253.192C192.284 249.857 193.48 246.039 192.561 241.615C193.502 236.713 192.171 231.844 190.874 227.621C190.725 227.136 190.577 226.66 190.431 226.193C189.901 224.495 189.406 222.907 189.036 221.358C188.601 219.532 188.383 217.916 188.489 216.467C188.987 215.409 189.477 214.357 189.962 213.312C193.252 206.238 196.383 199.507 201.012 193.688C205.501 188.622 208.874 183.166 212.207 177.774C213.23 176.119 214.249 174.47 215.296 172.84C220.542 165.022 224.537 156.557 227.86 148.072L227.878 148.024L227.895 147.975C228.582 145.914 229.359 143.819 230.165 141.664C230.233 141.483 230.301 141.301 230.369 141.119C231.108 139.147 231.864 137.127 232.572 135.085C234.103 130.664 235.445 126.035 235.95 121.265C236.496 118.88 236.477 116.282 236.343 113.809C236.29 112.829 236.221 111.888 236.153 110.968C236.039 109.405 235.929 107.904 235.909 106.387C235.878 104.032 236.084 102.017 236.75 100.374C237.385 98.806 238.47 97.4933 240.42 96.5422L240.569 96.4694L240.704 96.3729C244.206 93.8756 247.664 91.5836 251.126 89.2885C252.821 88.1653 254.517 87.0412 256.219 85.892C260.98 83.0714 265.291 79.6558 269.416 76.1633C270.825 74.9699 272.203 73.7764 273.57 72.593C276.262 70.261 278.909 67.9678 281.666 65.7898L281.788 65.6935L281.893 65.5796C284.073 63.2264 286.006 62.252 287.774 62.1733C289.547 62.0945 291.658 62.8926 294.243 65.2024L294.678 65.5907L295.253 65.6847C300.041 66.4678 302.665 68.6257 303.901 71.3326C305.186 74.1488 305.163 77.9801 303.721 82.3868L303.634 82.6509L303.623 82.9285C303.393 88.6484 306.634 92.461 309.969 95.4522C310.807 96.2043 311.675 96.9246 312.513 97.615C312.619 97.7025 312.725 97.7894 312.83 97.8758C313.564 98.4797 314.269 99.0603 314.947 99.6487C316.347 100.863 317.514 102.016 318.357 103.223C318.68 109.126 319.261 114.977 319.841 120.78L319.876 121.135C320.464 127.011 321.047 132.838 321.375 138.702L321.378 138.753L321.383 138.804C322.534 149.509 323.554 160.019 324.456 170.771C324.148 174.037 324.858 176.845 326.337 179.089C327.573 180.965 329.288 182.36 331.215 183.299C331.264 187.592 329.99 191.504 328.134 195.372C327.117 197.491 325.943 199.564 324.729 201.68C324.632 201.849 324.535 202.018 324.438 202.188C323.327 204.123 322.19 206.102 321.18 208.11L320.945 208.577L320.969 209.098C321.15 213.165 321.686 217.218 322.207 221.164C322.352 222.263 322.497 223.355 322.632 224.436C323.25 229.38 323.692 234.188 323.322 239.011C322.234 242.565 321.565 246.232 320.921 249.762C320.822 250.303 320.724 250.84 320.625 251.374C319.873 255.429 319.066 259.298 317.619 262.944ZM278.843 163.847L278.915 163.617L278.93 163.376C279.014 162.065 279.024 160.483 278.904 158.965C278.788 157.493 278.537 155.889 277.999 154.649C277.732 154.033 277.313 153.313 276.625 152.797C275.843 152.21 274.866 152.007 273.869 152.276C272.989 152.514 272.238 153.079 271.606 153.715C270.954 154.371 270.289 155.243 269.6 156.324L269.364 156.694L269.304 157.13C269.18 158.048 268.508 159.519 267.439 161.486C267.159 162.002 266.853 162.548 266.54 163.108C265.763 164.499 264.937 165.977 264.319 167.303C263.878 168.25 263.486 169.234 263.272 170.172C263.067 171.072 262.961 172.207 263.417 173.274C263.933 174.48 264.972 175.175 266.168 175.458C267.255 175.715 268.549 175.661 269.992 175.416C271.755 175.26 273.514 175.058 275.267 174.81C276.014 174.822 276.762 174.708 277.444 174.373C278.226 173.989 278.777 173.386 279.116 172.687C279.718 171.445 279.608 169.977 279.474 168.944C279.4 168.371 279.295 167.785 279.194 167.244C279.179 167.162 279.164 167.08 279.149 167C279.063 166.537 278.983 166.109 278.919 165.693C278.754 164.632 278.769 164.082 278.843 163.847Z" stroke="black" stroke-width="4"/>
<path d="M517.254 311.564L517.232 311.553L517.209 311.543C511.951 309.257 506.635 306.853 501.283 304.432C492.46 300.441 483.536 296.405 474.604 292.78C471.609 291.496 468.617 290.296 465.655 289.109C455.136 284.89 445.001 280.826 436.445 273.697L436.311 273.585L436.159 273.498C430.414 270.208 424.794 266.63 419.135 263.015L418.584 262.662C413.12 259.171 407.615 255.654 401.989 252.389L401.878 252.325L401.759 252.275C398.707 250.995 396.051 250.804 393.89 252.047C391.827 253.234 390.788 255.422 390.145 257.44C389.636 259.035 389.278 260.87 388.946 262.567C388.853 263.039 388.763 263.5 388.672 263.943C388.228 266.11 387.765 267.871 387.057 269.098L386.932 269.314L386.864 269.555C385.292 275.126 383.002 280.582 379.638 284.045C377.986 285.745 376.115 286.923 373.966 287.442C371.822 287.959 369.242 287.857 366.103 286.741C364.702 286.233 363.347 285.789 362.034 285.358C359.367 284.483 356.871 283.664 354.505 282.486C351.137 280.809 348.374 278.533 346.609 274.627L346.576 274.553L346.536 274.482C344.868 271.466 344.495 267.94 344.514 263.958C344.52 262.758 344.564 261.485 344.61 260.177C344.692 257.858 344.777 255.431 344.655 253.109C349.669 250.873 352.131 247.025 353.19 242.612C354.253 238.186 353.919 233.114 353.623 228.622C353.619 228.554 353.614 228.486 353.61 228.418C354.45 225.605 354.363 223.193 353.572 221.055C352.769 218.884 351.309 217.192 349.853 215.761C349.234 215.154 348.58 214.56 347.957 213.994C347.846 213.893 347.736 213.793 347.627 213.694C346.893 213.026 346.202 212.386 345.569 211.722C344.304 210.398 343.361 209.075 342.887 207.521L342.768 207.128L342.503 206.814C340.847 204.848 340.576 202.02 341.394 198.827C342.165 195.818 343.825 192.853 345.546 190.811C352.535 187.652 355.605 181.6 356.713 175.092C357.827 168.556 357.02 161.3 356.182 155.42C355.633 148.313 355.003 141.248 354.372 134.191L354.339 133.816C353.697 126.626 353.057 119.444 352.504 112.209C352.272 102.694 356.521 93.8181 360.747 84.9903C360.815 84.8478 360.883 84.7052 360.951 84.5627C365.965 74.5413 373.96 66.8637 384.384 63.3769L384.654 63.2868L384.887 63.1252C389.973 59.6084 395.798 58.976 402.001 59.652C406.622 60.1554 411.236 61.3484 415.799 62.5282C417.451 62.9555 419.098 63.3812 420.735 63.7717L420.787 63.7841L420.839 63.7936C431.025 65.6572 441.37 67.1117 451.801 68.1114C452.878 69.1214 453.931 70.2125 455.028 71.35C455.177 71.5041 455.326 71.6592 455.477 71.815C456.881 73.2679 458.362 74.7773 459.956 76.1228C463.151 78.8188 466.957 80.9902 471.935 80.9341C476.249 81.2613 479.212 83.7919 481.997 87.3885C483.06 88.7602 484.04 90.2108 485.055 91.7126C485.394 92.2143 485.737 92.7217 486.089 93.2337C487.448 95.2155 488.909 97.2348 490.6 98.9345C498.006 107.13 500.913 118.641 499.815 129.788L499.789 130.042L499.829 130.295C500.221 132.784 499.985 134.886 499.237 136.735C498.485 138.594 497.163 140.321 495.197 141.971L495.069 142.079L494.961 142.206C493.405 144.031 491.905 145.913 490.429 147.766C490.253 147.986 490.078 148.206 489.903 148.425C488.249 150.5 486.613 152.532 484.899 154.472C481.475 158.347 477.806 161.778 473.276 164.266L473.09 164.368L472.929 164.508C467.973 168.804 462.372 172.158 456.486 175.314C454.454 176.404 452.369 177.479 450.265 178.564C446.428 180.543 442.531 182.552 438.793 184.733C433.325 186.273 427.794 190.346 424.915 195.339C423.435 197.905 422.596 200.823 422.96 203.823C423.324 206.833 424.872 209.698 427.745 212.186C434.71 219.33 443.128 225.07 451.237 230.599C452.176 231.24 453.111 231.877 454.04 232.514C466.659 241.802 479.386 250.725 492.115 259.648C497.217 263.226 502.319 266.803 507.415 270.404C522.414 281.463 537.321 292.289 553.96 301.204C557.473 303.108 560.871 305.146 564.297 307.202C565.292 307.798 566.289 308.397 567.292 308.993C571.245 311.345 575.266 313.659 579.468 315.68C579.251 316.813 579.175 318.001 579.147 319.128C579.125 320.027 579.134 320.945 579.145 321.827L579.147 322.05C579.157 322.863 579.166 323.642 579.156 324.394C579.132 326.079 579.006 327.383 578.685 328.296C578.447 328.971 578.172 329.271 577.825 329.42C575.139 329.324 572.382 329.365 569.685 329.405C568.222 329.427 566.775 329.448 565.367 329.447C561.243 329.445 557.268 329.259 553.444 328.42C545.269 324.435 536.857 320.576 528.496 316.742C524.73 315.014 520.974 313.291 517.254 311.564ZM435.246 127.519L435.299 127.448L435.346 127.372C437.501 123.861 437.507 120.469 435.913 117.485C434.412 114.673 431.604 112.428 428.546 110.661C422.451 107.139 414.384 104.966 409.709 104.114C405.85 102.899 402.355 103.543 400.115 105.949C397.965 108.257 397.432 111.705 398.325 115.205C398.346 117.631 398.335 120.084 398.324 122.552C398.295 128.893 398.266 135.339 398.785 141.711L398.973 144.016L401.227 143.498L402.443 143.218L402.498 143.206L402.552 143.19L404.819 142.532C405.978 142.217 407.169 141.908 408.38 141.593C412.563 140.506 416.977 139.358 421.079 137.726C426.434 135.597 431.497 132.563 435.246 127.519Z" stroke="black" stroke-width="4"/>
<path d="M560.941 285.015L560.751 284.753L560.488 284.564C556.706 281.85 552.715 279.519 548.8 277.243L548.512 277.075C544.7 274.86 540.964 272.688 537.406 270.199C530.624 264.348 524.679 258.383 524.354 250.059L524.344 249.817L524.278 249.584C522.836 244.57 522.137 239.356 521.663 233.991C521.467 231.765 521.306 229.452 521.143 227.117C520.924 223.983 520.703 220.809 520.389 217.749C520.082 209.851 519.715 201.965 519.348 194.087C518.289 171.353 517.234 148.684 517.63 125.98C519.546 120.612 521.676 115.147 523.808 109.679C524.472 107.976 525.136 106.272 525.794 104.571C526.995 101.729 528.718 98.9836 530.574 96.1473C530.797 95.8052 531.024 95.4612 531.251 95.1155C532.801 92.7572 534.406 90.3168 535.695 87.8281C535.903 87.6975 536.229 87.5721 536.749 87.493C537.468 87.3837 538.362 87.3918 539.44 87.4621C539.827 87.4873 540.317 87.528 540.831 87.5706C541.512 87.6272 542.234 87.6872 542.812 87.7191C543.842 87.7758 544.962 87.7896 546.021 87.6211C548.682 87.9883 550.355 90.0857 552.057 93.6268C552.482 94.5095 552.887 95.4353 553.306 96.3996C553.338 96.4732 553.37 96.5471 553.402 96.6212C553.786 97.5063 554.184 98.4226 554.602 99.3155C555.459 101.147 556.465 103.025 557.796 104.58C558.852 106.737 560.338 108.684 561.842 110.475C562.499 111.258 563.136 111.985 563.756 112.693C564.689 113.757 565.584 114.778 566.452 115.879C569.238 119.411 570.797 122.636 569.63 126.654L569.598 126.765L569.578 126.88C569.111 129.654 568.612 132.443 568.112 135.244C566.322 145.264 564.504 155.441 563.956 165.69C561.523 181.078 562.259 196.904 564.45 212.111C564.152 216.013 565.34 220.817 567.226 224.864C568.2 226.953 569.398 228.924 570.759 230.53C572.103 232.115 573.712 233.47 575.539 234.122L576.216 234.364L576.893 234.118C584.016 231.535 589.723 225.718 592.034 218.202C598.991 207.908 602.638 196.107 605.307 184.38L605.309 184.37L605.312 184.361C606.042 181 607.207 177.832 608.506 174.576C608.789 173.869 609.079 173.155 609.372 172.434C610.407 169.884 611.479 167.242 612.384 164.493C615.888 154.969 619.288 145.281 621.997 135.568L622.019 135.491L622.034 135.413C623.007 130.413 623.744 125.379 624.476 120.369C624.993 116.838 625.508 113.319 626.102 109.831C626.54 108.282 626.941 106.647 627.337 105.03C627.516 104.298 627.695 103.57 627.875 102.855C628.474 100.483 629.114 98.1826 629.943 96.0391C631.597 91.767 633.933 88.3044 637.973 86.3014L638.278 86.1501L638.516 85.9064C640.794 83.5718 643.558 81.9501 646.623 80.3127C647.047 80.0862 647.478 79.8587 647.914 79.6285C650.56 78.2326 653.399 76.7347 655.966 74.7412L655.967 74.7405C657.697 73.395 658.959 73.1614 659.881 73.2893C660.86 73.4252 661.887 74.0271 662.997 75.1814C664.102 76.3316 665.132 77.8648 666.134 79.5472C666.602 80.3326 667.05 81.125 667.493 81.9095L667.575 82.0551C667.963 82.741 668.35 83.4249 668.732 84.0637C671.293 104.528 670.963 125.54 666.947 145.763C665.784 151.128 664.113 156.198 662.405 161.377C661.528 164.037 660.642 166.724 659.81 169.495L659.8 169.528L659.792 169.562C658.435 174.723 657.113 180.061 655.79 185.402C654.928 188.883 654.066 192.365 653.193 195.799L653.186 195.828L653.18 195.857C651.338 204.12 648.345 212.139 645.124 219.839C643.014 224.061 642.937 228.655 643.228 232.958C643.322 234.348 643.45 235.688 643.574 236.992C643.853 239.916 644.115 242.655 643.935 245.36L643.93 245.437L643.931 245.515C643.934 245.817 643.938 246.121 643.941 246.428C644.019 254.058 644.111 262.956 649.301 269.858C649.128 272.327 647.397 274.762 644.697 277.587C643.993 278.323 643.254 279.056 642.495 279.807L642.316 279.984C641.62 280.672 640.907 281.376 640.22 282.084C638.87 283.475 637.54 284.959 636.497 286.541C635.167 287.259 633.839 288.095 632.552 288.911L632.289 289.078C630.914 289.951 629.577 290.799 628.22 291.546C625.394 293.1 622.783 294.038 620.198 293.785C611.403 290.464 602.664 286.882 598.089 279.243C596.024 274.541 590.985 272.883 586.533 273.117C582.133 273.349 577.318 275.459 575.271 279.51C575.054 279.803 574.837 280.095 574.622 280.386C573.613 281.75 572.618 283.095 571.585 284.326C570.289 285.872 569.061 287.078 567.882 287.8C566.746 288.495 565.799 288.662 564.887 288.407C563.9 288.131 562.565 287.254 560.941 285.015Z" stroke="black" stroke-width="4"/>
<path d="M722.449 238.281L722.454 238.213L722.455 238.145C722.533 231.646 722.982 225.156 723.435 218.6L723.458 218.281C723.913 211.69 724.368 205.032 724.427 198.345C725.426 192.613 725.758 186.827 725.99 181.128C726.032 180.116 726.07 179.107 726.108 178.102C726.288 173.358 726.465 168.69 726.955 164.053L726.964 163.967L726.966 163.881C726.992 162.477 727.026 161.065 727.059 159.646C727.249 151.658 727.444 143.456 726.443 135.375L726.256 133.864L724.749 133.643C720.319 132.991 715.878 133.678 711.795 134.309C711.192 134.402 710.598 134.494 710.012 134.58C705.318 135.272 701.056 135.64 696.899 134.155L696.535 134.025L696.149 134.04C694.051 134.121 692.581 133.567 691.48 132.7C690.341 131.801 689.446 130.445 688.755 128.698C687.369 125.197 687.015 120.736 686.713 116.939L686.698 116.751L686.682 116.539L686.621 116.336C685.573 112.83 686.406 109.711 688.099 106.473C688.955 104.835 689.997 103.231 691.093 101.547L691.123 101.5C692.159 99.9088 693.246 98.2381 694.148 96.5249C695.195 95.1429 696.157 93.5353 697.068 92.0125C697.125 91.9179 697.181 91.8235 697.238 91.7296C698.26 90.0233 699.238 88.416 700.325 87.047C701.409 85.6819 702.509 84.6739 703.708 84.086C704.859 83.5212 706.218 83.2853 707.973 83.6579L708.184 83.7027L708.399 83.7016C712.891 83.678 717.394 83.8939 721.958 84.1128C722.59 84.1431 723.223 84.1734 723.857 84.2032C729.047 84.4469 734.308 84.6512 739.565 84.4457L739.725 84.4394L739.882 84.4076C752.309 81.897 764.977 81.0552 777.69 81.4784L777.778 81.4813L777.867 81.4764C785.226 81.0698 792.514 81.9488 799.495 84.1758C799.765 85.2665 800.029 86.3578 800.293 87.4496C801.358 91.8449 802.425 96.2472 803.843 100.649L803.919 100.886L804.052 101.098C805.888 104.025 806.276 107.218 806.015 110.69C805.884 112.435 805.592 114.215 805.252 116.046C805.155 116.567 805.054 117.097 804.951 117.631C804.714 118.869 804.471 120.133 804.274 121.364C803.186 124.094 800.57 125.692 796.868 126.785C795.007 127.335 792.997 127.72 790.962 128.076C790.59 128.141 790.216 128.205 789.841 128.27C788.339 128.528 786.829 128.787 785.459 129.097C783.847 128.917 782.412 129.01 781.183 129.459C779.799 129.964 778.806 130.876 778.179 132.044C777.583 133.155 777.365 134.407 777.308 135.591C777.253 136.741 777.345 137.957 777.485 139.135C777.433 142.626 777.462 146.075 777.49 149.499C777.55 156.799 777.61 163.979 776.888 171.178L776.882 171.237L776.88 171.296C776.597 178.31 775.588 184.367 771.042 189.246L770.862 189.438L770.739 189.671C768.629 193.641 768.249 198.051 768.108 202.17C768.079 203.007 768.06 203.828 768.041 204.636C767.963 207.943 767.891 211.016 767.201 213.936L767.173 214.054L767.159 214.174C766.828 217.145 766.474 220.125 766.12 223.114C764.957 232.926 763.784 242.826 763.323 252.758C762.435 255.541 762.23 258.606 762.044 261.378C762.001 262.017 761.96 262.64 761.911 263.24C761.629 266.71 761.123 269.636 759.422 271.998L759.208 272.295L759.113 272.649C757.042 280.368 753.656 287.161 748.343 292.953L748.251 293.054L748.173 293.166C746.915 294.981 744.599 296.5 741.876 297.329C739.219 298.138 736.469 298.201 734.369 297.482C727.863 293.785 721.851 287.923 720.915 281.061C720.761 266.781 721.307 252.482 722.449 238.281Z" stroke="black" stroke-width="4"/>
<path d="M826.673 288.237L826.552 288.04L826.39 287.876C819.813 281.198 813.644 274.409 809.64 266.315L809.568 266.17L809.475 266.039C805.014 259.796 804.214 252.02 804.562 243.736L804.567 243.64L804.561 243.543C804.384 240.292 804.336 237.057 804.287 233.775C804.262 232.028 804.236 230.267 804.19 228.483C804.059 223.407 803.767 218.257 802.827 213.156L802.732 212.641L802.396 212.238C801.448 211.099 800.158 210.335 799.039 209.758C798.561 209.512 798.065 209.276 797.605 209.058C797.517 209.016 797.429 208.974 797.344 208.933C796.797 208.673 796.306 208.433 795.859 208.184C794.931 207.667 794.439 207.237 794.205 206.844C794.036 206.561 793.873 206.094 794.179 205.101L794.275 204.789L794.266 204.462C794.263 204.334 794.26 204.207 794.256 204.08C794.093 197.809 793.956 192.541 797.804 188.526L797.964 188.359L798.081 188.161C804.67 177.031 811.384 166.202 818.253 155.187C821.16 151.005 822.545 146.372 823.565 141.829C823.893 140.369 824.18 138.939 824.462 137.532C825.085 134.434 825.685 131.446 826.648 128.482L826.657 128.453L826.666 128.423C828.026 123.754 830.118 119.361 832.404 114.924C832.914 113.936 833.434 112.942 833.958 111.942C835.697 108.624 837.472 105.237 838.974 101.766C844.105 96.9917 852.129 94.9575 859.477 95.1715L859.728 95.1788L859.973 95.1239C863.726 94.2827 867.246 95.2976 871.281 96.4608C871.87 96.6307 872.471 96.8039 873.085 96.9749C877.645 98.245 882.794 99.2884 888.178 96.1592C889.879 95.7199 891.588 95.1807 893.245 94.6579C893.494 94.5792 893.742 94.5008 893.989 94.4233C895.996 93.7927 897.934 93.2053 899.854 92.7978C903.672 91.9872 907.223 91.9318 910.679 93.614L910.934 93.7378L911.212 93.7862C911.588 93.8514 911.963 93.9157 912.336 93.9799C916.178 94.6401 919.875 95.2752 923.151 96.5692C926.663 97.9561 929.531 100.045 931.355 103.634L931.412 103.745L931.482 103.849C933.842 107.334 936.866 110.354 939.721 113.205C940.281 113.765 940.834 114.317 941.374 114.866C944.716 118.255 947.654 121.554 949.426 125.569C950.005 127.596 950.613 129.59 951.215 131.563C953.375 138.645 955.455 145.463 955.812 152.61L955.813 152.648L955.817 152.686C956.104 155.93 956.324 159.246 956.547 162.596C956.969 168.935 957.399 175.391 958.298 181.691L958.333 181.934L958.425 182.16C959.94 185.893 959.695 189.668 958.739 193.682C958.265 195.675 957.631 197.668 956.974 199.732L956.952 199.801C956.305 201.836 955.636 203.943 955.147 206.05C953.967 209.711 951.663 212.884 948.961 216.128C948.362 216.848 947.737 217.577 947.102 218.318C944.949 220.83 942.687 223.469 940.948 226.295C938.897 229.405 936.955 232.406 935.023 235.39C932.985 238.539 930.959 241.67 928.83 244.892C924.256 248.899 919.673 252.904 915.087 256.912C904.663 266.022 894.226 275.144 883.854 284.323C877.509 288.506 869.05 289.515 860.735 290.507C860.366 290.551 859.997 290.595 859.628 290.639C856.923 290.707 854.273 290.854 851.659 290.998C845.542 291.336 839.617 291.663 833.62 290.952L833.384 292.938L833.455 290.94C830.112 290.822 827.967 290.359 826.673 288.237ZM909.391 152.008L909.362 151.913L909.323 151.821C907.442 147.34 903.266 145.662 899.23 145.147C895.277 144.644 890.96 145.177 887.795 145.625C883.455 145.472 878.278 145.734 873.713 147.316C869.071 148.925 864.905 151.968 863.089 157.407C862.225 159.14 861.318 160.88 860.403 162.637C856.607 169.925 852.665 177.492 850.963 185.972C849.443 190.839 848.686 195.817 848.105 200.704C847.933 202.15 847.777 203.58 847.622 204.997C847.244 208.461 846.874 211.85 846.298 215.22L846.24 215.558L846.299 215.896C846.739 218.453 846.866 221.049 846.999 223.786C847.062 225.077 847.126 226.4 847.226 227.765C847.527 231.878 848.152 236.181 850.264 240.09L850.519 240.562L850.976 240.843C851.326 241.058 851.729 241.51 852.259 242.339C852.465 242.662 852.663 242.995 852.878 243.359C852.93 243.445 852.982 243.534 853.036 243.624C853.304 244.075 853.603 244.569 853.93 245.036C854.549 245.922 855.473 247.023 856.873 247.504C858.269 247.984 859.699 247.713 861.089 246.95C870.16 245.703 878.132 240.615 883.865 233.483C892.083 224.515 900.495 215.098 906.114 203.865C911.397 197.944 913.187 190.183 912.33 182.346C912.558 172.332 912.456 161.992 909.391 152.008Z" stroke="black" stroke-width="4"/>
<path d="M860 332.193H845C830.22 349.648 803.386 390.832 803.386 390.832L820 391.193L841 360.193L859 373.193L873 361.193C868 355.193 859 349.193 848 347.193L860 332.193ZM708 334.193L699 347.193H669L662 357.193C665.49 357.193 679.378 357.193 686 357.193C690 357.193 690.406 360.652 689 362.193C681.456 370.459 671 382.193 651 382.193L656 391.193C673 391.193 687.891 378.491 695.169 371.726C702.448 364.96 707 358.193 707 358.193H734L742 347.193H717L726 334.193H708ZM780 335.193C771.589 353.645 744 386.193 744 386.193L752 391.193C769 388.193 799 371.193 811 361.193L805 352.193C805 352.193 780.568 371.193 772 371.193L795 335.193H780V335.193ZM775 336.193H760C758 344.193 730 381.193 713 385.193L721 391.193C737.426 384.099 767.594 352.965 775 336.193ZM619 352.193L612 364.193H646L654 352.193H619ZM891 352.193L884 364.193H920L927 352.193H891Z" fill="black"/>
</g>
<defs>
<clipPath id="clip0">
<rect width="986.237" height="420.193" fill="white"/>
</clipPath>
</defs>
</svg>
