<svg width="18" height="18" viewBox="0 0 18 18" fill="none" xmlns="http://www.w3.org/2000/svg">
<path d="M14.0838 10.8789C14.9188 11.8613 16.0977 12.6472 17.6204 13.2367L17.031 14.4155C16.3924 14.1208 15.8275 13.8015 15.3364 13.4577L14.6732 14.5629C15.3609 14.9067 16.1223 15.3488 16.9573 15.8891L16.1468 16.9943C14.7224 15.8646 13.4698 15.1278 12.3892 14.7839V16.2575C12.3892 16.9943 12.119 17.3627 11.5787 17.3627H10.4735L10.1788 16.1839H10.9156C11.0629 16.1839 11.1366 16.1102 11.1366 15.9628V14.8576L7.74736 16.6996C7.64911 17.0435 7.55087 17.1171 7.45264 16.9207L6.78952 15.6681L9.22095 14.7103L8.26312 13.384C7.72279 13.8261 7.20704 14.1699 6.71585 14.4155C6.81408 14.5138 6.88776 14.6857 6.93688 14.9313L5.68433 15.7418C5.19313 14.5138 4.62825 13.5068 3.9897 12.7209C3.59674 14.4401 2.71258 15.9874 1.33723 17.3627L0.526755 16.1839C2.19682 14.5138 3.03186 12.4753 3.03186 10.0684V0.637451H4.21074C4.60369 0.686586 4.62825 0.833945 4.28442 1.07953V5.42663C4.77561 4.98456 5.26681 4.41968 5.75801 3.732L6.86321 4.91087C6.96144 5.10736 6.83864 5.2056 6.49481 5.20559C5.90536 5.84416 5.16857 6.53183 4.28442 7.26862V11.1C4.92297 11.7385 5.5124 12.4999 6.05273 13.384C7.32983 12.7455 8.33679 11.9104 9.07359 10.8789H5.90537V9.70005H9.07359V8.66853H6.78952V7.48966H9.07359V6.16342H8.04208H7.08424V1.00585H15.9995V6.16342H14.0838V7.48966H16.4416V8.66853H14.0838V9.70005H17.3994V10.8789H14.0838ZM0.379395 9.47901C0.821472 7.9563 1.04251 6.23711 1.04251 4.32143L2.44243 4.61615C2.58978 4.76352 2.54066 4.91088 2.29507 5.05823C2.34418 6.43359 2.12314 8.10366 1.63195 10.0684L0.379395 9.47901ZM11.1366 13.8261V11.3947H12.3155C12.7084 11.4438 12.733 11.5912 12.3892 11.8368V13.6787L13.5681 14.1208L14.3785 12.7209C13.6908 12.1315 13.1751 11.5175 12.8313 10.8789H10.3261C10.1788 11.3701 9.76126 11.9841 9.07359 12.7209L10.3261 14.2682L11.1366 13.8261ZM8.3368 1.89001V3.14256H14.7469V1.89001H8.3368ZM8.3368 4.02671V5.27927H14.7469V4.02671H8.3368ZM10.3261 6.16342V7.48966H12.8313V6.16342H10.3261ZM10.3261 8.66853V9.70005H12.8313V8.66853H10.3261Z" fill="black"/>
</svg>
