<svg width="53" height="75" viewBox="0 0 53 75" fill="none" xmlns="http://www.w3.org/2000/svg">
<path d="M0 0L10.1741 14.7634L5.44195 13.8644C6.48302 12.6656 7.85534 11.5931 9.55891 10.6467C11.0101 9.8265 12.8872 9.08517 15.1902 8.42271C17.5247 7.72871 20.3797 7.3817 23.7553 7.3817C27.5726 7.3817 31.2479 7.77602 34.7812 8.56467C38.3146 9.35331 41.422 10.5205 44.1036 12.0662C46.8167 13.612 48.9777 15.5363 50.5866 17.8391C52.1955 20.1104 53 22.7287 53 25.694C53 28.2177 52.6372 30.3312 51.9116 32.0347C51.2176 33.7382 50.2869 35.1735 49.1196 36.3407C47.9524 37.5079 46.6274 38.47 45.1446 39.2271C43.6619 39.9842 42.1476 40.7098 40.6018 41.4038C39.0559 42.0662 37.5417 42.7603 36.0589 43.4858C34.5762 44.1798 33.2512 45.0473 32.0839 46.0883C30.9166 47.1293 29.9702 48.4227 29.2446 49.9685C28.5506 51.5142 28.2035 53.4385 28.2035 55.7413C28.2035 56.183 28.2193 56.6404 28.2509 57.1136C28.2824 57.5867 28.3297 58.0915 28.3928 58.6278H17.9348C17.9033 58.4385 17.8717 58.2177 17.8402 57.9653C17.8086 57.7445 17.7771 57.4921 17.7455 57.2082C17.7455 56.9243 17.7455 56.5931 17.7455 56.2145C17.7455 55.2997 17.8559 54.2114 18.0768 52.9495C18.2976 51.6561 18.7708 50.3155 19.4964 48.9274C20.2536 47.5394 21.3104 46.1672 22.6669 44.8107C24.055 43.4543 25.9006 42.224 28.2035 41.1199C30.475 40.0473 32.3205 38.8644 33.7402 37.571C35.1598 36.2461 36.2482 34.9054 37.0053 33.5489C37.794 32.1609 38.3303 30.8202 38.6143 29.5268C38.8982 28.2019 39.0402 26.9874 39.0402 25.8833C39.0402 23.8644 38.63 22.0978 37.8098 20.5836C37.0211 19.0379 35.9485 17.7603 34.5919 16.7508C33.2669 15.7098 31.7527 14.9369 30.0491 14.4322C28.3455 13.9274 26.5946 13.6751 24.7964 13.6751C22.4619 13.6751 20.3955 13.9274 18.5973 14.4322C16.7991 14.9054 15.2059 15.5836 13.8178 16.4669C12.4297 17.3186 11.2152 18.3281 10.1741 19.4953C9.16456 20.6309 8.24968 21.877 7.42944 23.2334C6.60921 24.5584 5.85207 25.9621 5.15802 27.4448C4.49552 28.8959 3.83303 30.347 3.17053 31.7981L0 0ZM29.7652 69.3218C29.7652 70.3312 29.497 71.1987 28.9607 71.9243C28.4559 72.6498 27.825 73.2334 27.0678 73.6751C26.3107 74.1483 25.522 74.4795 24.7018 74.6688C23.8815 74.8896 23.1717 75 22.5723 75C21.9098 75 21.1684 74.8896 20.3482 74.6688C19.528 74.4795 18.7393 74.1483 17.9821 73.6751C17.2565 73.2334 16.6414 72.6498 16.1366 71.9243C15.6318 71.1987 15.3795 70.3312 15.3795 69.3218C15.3795 68.2492 15.6318 67.3344 16.1366 66.5773C16.6414 65.8202 17.2565 65.205 17.9821 64.7319C18.7393 64.2271 19.528 63.8644 20.3482 63.6435C21.1684 63.4227 21.9098 63.3123 22.5723 63.3123C23.1717 63.3123 23.8815 63.4227 24.7018 63.6435C25.522 63.8644 26.3107 64.2271 27.0678 64.7319C27.825 65.205 28.4559 65.8202 28.9607 66.5773C29.497 67.3344 29.7652 68.2492 29.7652 69.3218Z" fill="black"/>
</svg>
