<?xml version="1.0" encoding="UTF-8" standalone="no"?>
<!-- Created with Inkscape (http://www.inkscape.org/) -->
<svg xmlns:dc="http://purl.org/dc/elements/1.1/" xmlns:cc="http://creativecommons.org/ns#" xmlns:rdf="http://www.w3.org/1999/02/22-rdf-syntax-ns#" xmlns:svg="http://www.w3.org/2000/svg" xmlns="http://www.w3.org/2000/svg" xmlns:xlink="http://www.w3.org/1999/xlink" xmlns:sodipodi="http://sodipodi.sourceforge.net/DTD/sodipodi-0.dtd" xmlns:inkscape="http://www.inkscape.org/namespaces/inkscape" width="500" height="650" id="svg3496" sodipodi:version="0.32" inkscape:version="0.47 r22583" sodipodi:docname="Chapeau_Mizukage2.svg" inkscape:output_extension="org.inkscape.output.svg.inkscape" version="1.0">
  <defs id="defs3498">
    <linearGradient inkscape:collect="always" id="linearGradient5562">
      <stop style="stop-color: rgb(179, 179, 179); stop-opacity: 1;" offset="0" id="stop5564"/>
      <stop style="stop-color: rgb(179, 179, 179); stop-opacity: 0;" offset="1" id="stop5566"/>
    </linearGradient>
    <linearGradient id="linearGradient5477">
      <stop style="stop-color:#6e6e6e;stop-opacity:1;" offset="0" id="stop5479"/>
      <stop style="stop-color:#c8c8c8;stop-opacity:1;" offset="1" id="stop5481"/>
    </linearGradient>
    <linearGradient inkscape:collect="always" xlink:href="#linearGradient5562" id="linearGradient5798" gradientUnits="userSpaceOnUse" x1="171.93466" y1="441.31171" x2="245.85484" y2="441.31171"/>
    <linearGradient inkscape:collect="always" xlink:href="#linearGradient5562" id="linearGradient5800" gradientUnits="userSpaceOnUse" gradientTransform="translate(-0.0789891,0.016043)" x1="390.4509" y1="441.31171" x2="315.28992" y2="441.31171"/>
    <linearGradient inkscape:collect="always" xlink:href="#linearGradient5477" id="linearGradient2915" gradientUnits="userSpaceOnUse" x1="359.20041" y1="121.33018" x2="394.23911" y2="150.56282"/>
    <linearGradient inkscape:collect="always" xlink:href="#linearGradient5477" id="linearGradient2923" gradientUnits="userSpaceOnUse" x1="359.20041" y1="121.33018" x2="394.23911" y2="150.56282"/>
    <linearGradient inkscape:collect="always" xlink:href="#linearGradient5477" id="linearGradient2926" gradientUnits="userSpaceOnUse" x1="359.20041" y1="121.33018" x2="394.23911" y2="150.56282" gradientTransform="translate(1.42399,-3.42052)"/>
    <linearGradient inkscape:collect="always" xlink:href="#linearGradient5562" id="linearGradient2959" gradientUnits="userSpaceOnUse" x1="171.93466" y1="441.31171" x2="245.85484" y2="441.31171"/>
    <linearGradient inkscape:collect="always" xlink:href="#linearGradient5562" id="linearGradient2961" gradientUnits="userSpaceOnUse" gradientTransform="translate(-0.0789891,0.016043)" x1="390.4509" y1="441.31171" x2="315.28992" y2="441.31171"/>
    <linearGradient inkscape:collect="always" xlink:href="#linearGradient5477" id="linearGradient2963" gradientUnits="userSpaceOnUse" gradientTransform="translate(1.42399,-3.42052)" x1="359.20041" y1="121.33018" x2="394.23911" y2="150.56282"/>
    <linearGradient inkscape:collect="always" xlink:href="#linearGradient5477" id="linearGradient2965" gradientUnits="userSpaceOnUse" x1="359.20041" y1="121.33018" x2="394.23911" y2="150.56282"/>
    <linearGradient inkscape:collect="always" xlink:href="#linearGradient5477" id="linearGradient2975" gradientUnits="userSpaceOnUse" gradientTransform="translate(-27.19211,-26.17252)" x1="359.20041" y1="121.33018" x2="394.23911" y2="150.56282"/>
    <linearGradient inkscape:collect="always" xlink:href="#linearGradient5562" id="linearGradient2990" gradientUnits="userSpaceOnUse" gradientTransform="translate(-28.695089,-22.735957)" x1="390.4509" y1="441.31171" x2="315.28992" y2="441.31171"/>
    <linearGradient inkscape:collect="always" xlink:href="#linearGradient5562" id="linearGradient2993" gradientUnits="userSpaceOnUse" x1="171.93466" y1="441.31171" x2="245.85484" y2="441.31171" gradientTransform="translate(-28.6161,-22.752)"/>
    <linearGradient inkscape:collect="always" xlink:href="#linearGradient5477" id="linearGradient3776" x1="333.43222" y1="94.538078" x2="346.00858" y2="107.08922" gradientUnits="userSpaceOnUse"/>
    <linearGradient inkscape:collect="always" xlink:href="#linearGradient5477" id="linearGradient3780" gradientUnits="userSpaceOnUse" x1="333.43222" y1="94.538078" x2="346.00858" y2="107.08922" gradientTransform="translate(44,28)"/>
  </defs>
  <sodipodi:namedview id="base" pagecolor="#ffffff" bordercolor="#666666" borderopacity="1.0" inkscape:pageopacity="0.0" inkscape:pageshadow="2" inkscape:zoom="1" inkscape:cx="349.5568" inkscape:cy="399.38904" inkscape:document-units="px" inkscape:current-layer="svg3496" showgrid="false" inkscape:window-width="1086" inkscape:window-height="968" inkscape:window-x="131" inkscape:window-y="23" showguides="true" inkscape:guide-bbox="true" inkscape:window-maximized="0"/>
  <metadata id="metadata3501">
    <rdf:RDF>
      <cc:Work rdf:about="">
        <dc:format>image/svg+xml</dc:format>
        <dc:type rdf:resource="http://purl.org/dc/dcmitype/StillImage"/>
        <dc:title/>
      </cc:Work>
    </rdf:RDF>
  </metadata>
  <g id="g3797">
    <path id="path5536" d="m 112.4314,230.04946 c 0,15.83435 0,31.6687 0,47.50305 0,14.90028 0.73082,29.67849 0.73082,44.57978 0,25.84443 0,51.56621 0,77.4665 0,22.45077 -0.57168,44.86863 1.46163,67.23508 2.74917,30.24084 18.05364,42.68463 29.96346,66.50426 2.9032,5.8064 4.3849,25.17255 4.3849,31.4251 0,5.36765 30.57981,-12.38572 35.07917,-13.88551 28.46223,-9.48741 51.20588,-2.34468 76.00487,13.15469 14.37734,8.98584 29.99224,3.51367 45.3106,6.57734 12.82422,2.56485 18.95821,-0.85117 28.50182,-6.57734 8.96192,-5.37715 11.25643,-14.25556 14.61633,-22.6553 9.5585,-23.89626 12.48165,-55.10013 17.53958,-80.38977 7.17531,-35.87656 13.15469,-57.52473 13.15469,-95.00609 0,-30.1212 -4.38489,-60.11346 -4.38489,-90.62119 0,-17.78319 0,-35.56638 0,-53.34958" style="fill:#f9f9f9;fill-opacity:1;fill-rule:evenodd;stroke:#000000;stroke-width:1px;stroke-linecap:butt;stroke-linejoin:miter;stroke-opacity:1;display:inline"/>
    <path id="path5552" d="m 311.96297,570.26099 c -0.25302,-0.25299 -9.36911,-0.87405 -20.25801,-1.38014 -22.13089,-1.02859 -23.38849,-1.3382 -37.15677,-9.14772 -17.90901,-10.1582 -36.66086,-15.31157 -50.5204,-13.88405 -7.95493,0.81934 -18.86805,3.35323 -22.6931,5.26902 -1.51656,0.75957 -3.16839,1.38101 -3.67079,1.38101 -0.50238,0 -1.23643,-9.07506 -1.63114,-20.1668 -0.39472,-11.09174 -1.13215,-22.92378 -1.63871,-26.29343 -2.31862,-15.42347 -3.06941,-54.90087 -2.01956,-106.19481 1.13383,-55.39744 3.53734,-131.05214 4.18219,-131.64231 0.21317,-0.19508 17.84848,6.28844 39.18956,14.40787 21.34107,8.11943 39.95767,14.76286 41.37023,14.76316 5.97883,10e-4 40.27848,-12.98691 65.40408,-24.76645 7.05803,-3.30897 13.14634,-6.01634 13.52962,-6.01634 1.21431,0 0.75317,31.22077 -1.43274,97.00488 -1.79263,53.9494 -2.01579,74.00442 -1.44289,129.6802 0.43917,42.68065 0.32189,66.78554 -0.33325,68.48744 -0.70249,1.82479 -2.83147,3.42384 -6.9767,5.24 -5.75627,2.52197 -12.95158,4.20854 -13.90165,3.25848 l 3e-5,-10e-6 z" style="opacity:0.837545;fill:url(#linearGradient2993);fill-opacity:1;fill-rule:nonzero;stroke:none;display:inline"/>
    <path id="path5570" d="m 311.88398,570.27703 c -0.25302,-0.25299 -9.36911,-0.87405 -20.25801,-1.38014 -22.13089,-1.02859 -23.38849,-1.3382 -37.15677,-9.14772 -17.90901,-10.1582 -36.66086,-15.31157 -50.5204,-13.88405 -7.95493,0.81934 -18.86805,3.35323 -22.6931,5.26902 -1.51656,0.75957 -3.16839,1.38101 -3.67079,1.38101 -0.50238,0 -1.23643,-9.07506 -1.63114,-20.1668 -0.39472,-11.09174 -1.13215,-22.92378 -1.63871,-26.29343 -2.31862,-15.42347 -3.06941,-54.90087 -2.01956,-106.19481 1.13383,-55.39744 3.53734,-131.05214 4.18219,-131.64231 0.21317,-0.19508 17.84848,6.28844 39.18956,14.40787 21.34107,8.11943 39.95767,14.76286 41.37023,14.76316 5.97883,0.001 40.27848,-12.98691 65.40408,-24.76645 7.05803,-3.30897 13.14634,-6.01634 13.52962,-6.01634 1.21431,0 0.75317,31.22077 -1.43274,97.00488 -1.79263,53.9494 -2.01579,74.00442 -1.44289,129.6802 0.43917,42.68065 0.32189,66.78554 -0.33325,68.48744 -0.70249,1.82479 -2.83147,3.42384 -6.9767,5.24 -5.75627,2.52197 -12.95158,4.20854 -13.90165,3.25848 l 3e-5,-1e-5 z" style="opacity:0.837545;fill:url(#linearGradient2990);fill-opacity:1;fill-rule:nonzero;stroke:none;display:inline"/>
    <path style="fill:#f9f9f9;fill-opacity:1;fill-rule:evenodd;stroke:#000000;stroke-width:1px;stroke-linecap:butt;stroke-linejoin:miter;stroke-opacity:1;display:inline" d="m 84.56595,215.30998 c -3.91232,65.72923 -11.10229,148.97981 -11.10229,214.81915 -36.323895,95.6065 -46.600769,78.09457 -61.388552,110.26939 1.2917,6.45852 12.27827,15.37682 16.80877,19.00122 9.47481,7.57985 30.18726,9.2471 42.38733,15.34714 9.908352,4.95417 13.364132,12.11194 18.270402,21.92448 21.66135,41.33872 43.48909,29.98699 80.38977,38.73325 7.39595,-49.23514 8.40499,-97.43729 1.46163,-146.81019 -2.33459,-68.75098 2.41303,-179.21224 4.66499,-247.18193" id="path5530"/>
    <path style="fill:#f9f9f9;fill-opacity:1;fill-rule:evenodd;stroke:#000000;stroke-width:1px;stroke-linecap:butt;stroke-linejoin:miter;stroke-opacity:1;display:inline" d="m 435.94843,200.84389 c 0,-5.84653 0,34.15735 0,40.00388 0,12.51338 0.30603,26.35967 -1.46163,38.73325 -21.8524,72.65617 17.576,118.39678 35.07917,181.9732 1.79669,8.98343 14.74965,27.66138 16.95119,36.46758 1.71187,6.84747 1.14553,8.67119 -2.19244,15.34713 -3.93425,7.8685 -8.73119,9.77379 -16.80877,18.27041 -30.11657,46.93355 -82.87509,28.63022 -98.65304,77.12306 -4.2102,12.32595 -23.71575,11.12204 -35.04236,12.2668 -6.21692,1.55423 -1.32531,-16.4913 -2.37882,-22.81237 -0.94441,-5.66648 -1.08227,-11.67102 -0.42715,-17.4129 0.11708,-1.02619 0.25949,-2.04398 0.42715,-3.04995 1.67876,-10.07252 3.65408,-19.43258 3.65408,-29.96346 0,-9.0134 0,-18.0268 0,-27.04019 -6.02904,-83.34236 5.98868,-219.57429 1.648,-264.31157" id="path5532"/>
    <path style="fill:none;stroke:#000000;stroke-width:1px;stroke-linecap:butt;stroke-linejoin:miter;stroke-opacity:1;display:inline;filter:url(#filter5722)" d="m 103.10631,232.28533 c 0,15.65693 0,39.48269 0,55.13961 -2.36164,17.76399 -11.74171,43.87341 -25.5276,56.16072" id="path5576"/>
    <path style="fill:none;stroke:#000000;stroke-width:1px;stroke-linecap:butt;stroke-linejoin:miter;stroke-opacity:1;display:inline;filter:url(#filter5726)" d="m 133.84983,276.25144 c -1.64004,21.28849 -1.0211,42.88347 -1.0211,64.32955 0,14.9296 -4.81975,26.87631 -7.14773,40.84416 -1.75554,10.53326 -3.07669,20.48899 -5.10552,30.63312 -1.12003,5.60017 -3.77596,10.61524 -6.12662,15.31656" id="path5580"/>
    <path transform="matrix(0.988929,0.14839,-0.14839,0.988929,57.0957,5.7444)" style="fill:none;stroke:#000000;stroke-width:1px;stroke-linecap:butt;stroke-linejoin:miter;stroke-opacity:1;display:inline;filter:url(#filter5718)" d="m 131.49473,433.90644 c -3.38186,16.90933 2.82569,38.08907 8.16884,54.11851 8.45019,25.35058 16.52958,49.39684 28.59091,73.51949 4.71986,9.43972 11.71665,15.21238 14.29545,25.5276" id="path5622"/>
    <path style="fill:none;stroke:#000000;stroke-width:1px;stroke-linecap:butt;stroke-linejoin:miter;stroke-opacity:1;display:inline;filter:url(#filter5714)" d="m 85.63027,449.77359 c 7.65646,15.31293 7.14773,36.89787 7.14773,54.11851 0,10.56352 -2.22582,18.8389 -6.12663,28.59091 -2.82746,7.06867 -2.04221,16.90529 -2.04221,24.5065" id="path5624"/>
    <path style="fill:none;stroke:#000000;stroke-width:1px;stroke-linecap:butt;stroke-linejoin:miter;stroke-opacity:1;display:inline;filter:url(#filter5710)" d="m 359.40341,244.53858 c -2.94412,24.864 5.05392,52.2827 -1.0211,76.5828 -4.82915,19.3166 0,46.30211 0,66.37175 0,14.7837 2.52646,32.78054 -1.02111,46.97079 -1.73961,6.95843 0,16.26928 0,23.48539" id="path5626"/>
    <path style="fill:none;stroke:#000000;stroke-width:1px;stroke-linecap:butt;stroke-linejoin:miter;stroke-opacity:1;display:inline;filter:url(#filter5706)" d="m 386.23843,422.32795 c 0.82718,29.60114 -13.56067,85.18636 -13.56067,107.09864 0,23.03426 -4.59696,53.10539 -10.21104,75.56169" id="path5628"/>
    <path style="fill:none;stroke:#000000;stroke-width:1px;stroke-linecap:butt;stroke-linejoin:miter;stroke-opacity:1;display:inline;filter:url(#filter5702)" d="m 396.16315,247.60189 c 0,44.749 -1.87957,91.32084 3.06332,135.80683 3.44999,31.04995 3.06331,61.65801 3.06331,92.92046 0,6.69181 -0.78496,5.49473 -1.02111,7.14773" id="path5630"/>
    <path style="fill:none;stroke:#000000;stroke-width:1px;stroke-linecap:butt;stroke-linejoin:miter;stroke-opacity:1;display:inline;filter:url(#filter5698)" d="m 417.60634,335.41683 c 0,6.46699 0,12.93399 0,19.40098 0,21.34502 4.40893,82.33734 14.29545,102.11039 1.36147,2.72295 2.72295,5.44589 4.08442,8.16884 4.94471,9.88942 12.25325,25.45356 12.25325,36.75974 0,10.09058 4.08441,18.73301 4.08441,28.59091 0,0.68074 0,1.36147 0,2.04221" id="path5632"/>
  </g>
  <g id="g3786">
    <path style="fill:#ffffff;fill-rule:evenodd;stroke:#000000;stroke-width:2;stroke-linecap:butt;stroke-linejoin:miter;stroke-miterlimit:4;stroke-opacity:1;stroke-dasharray:none;display:inline" d="M 9.766331,191.21319 C 126.45989,85.63735 244.00311,9.173713 244.36752,9.148581 435.81053,114.91138 490.63797,176.72663 490.79201,176.8988 324.46755,282.02559 257.82423,296.26552 256.53713,296.35327 11.301201,205.45556 9.435307,191.68973 9.438213,191.68101" id="path5377"/>
    <path style="fill:#ffffff;fill-opacity:1;fill-rule:nonzero;stroke:#00000e;stroke-width:2;stroke-linecap:round;stroke-miterlimit:4;stroke-opacity:1;stroke-dasharray:none;display:inline" d="m 32.242224,188.12715 -11.600975,-5.56997 2.526037,-2.21199 C 79.33408,131.16146 133.44229,88.24074 193.66051,45.103419 c 18.59602,-13.321264 49.90912,-34.692504 50.83138,-34.692504 0.74386,0 35.01051,19.429746 54.61682,30.968623 72.67418,42.770832 131.99823,83.513172 171.57231,117.831742 l 9.01137,7.81467 -6.71874,3.9855 C 392.88796,223.41202 337.80774,253.72151 254.17862,279.47333 177.06481,256.41047 104.5838,222.94468 32.242224,188.12715 z" id="path5387"/>
    <path style="fill:#292a9f;fill-opacity:1;fill-rule:nonzero;stroke:#000000;stroke-width:2;stroke-linecap:round;stroke-miterlimit:4;stroke-opacity:1;stroke-dasharray:none;display:inline" d="m 20.447745,182.06461 2.52604,-2.21199 C 79.14058,130.66889 133.24879,87.74817 193.46701,44.610848 212.06303,31.289584 243.37613,9.918344 244.29839,9.918344 c 0.74386,0 35.01051,19.429746 54.61682,30.968623 72.67418,42.770833 131.99823,83.513173 171.57231,117.831743 l 9.01137,7.81467 c -41.34012,28.19022 -85.86352,57.00383 -133.27266,77.21469 -1.9782,0.39564 -3.37304,-3.26916 -8.16927,-8.86509 -2.86856,-3.34687 -13.52206,-14.63577 -23.67442,-25.08644 -10.15236,-10.45067 -28.81438,-29.85383 -41.47119,-43.11815 -12.65681,-13.26431 -23.47568,-24.22642 -24.04194,-24.36024 -2.84126,-0.67146 -42.82282,44.8415 -79.01883,89.95099 -5.72483,7.13459 -10.6459,12.96097 -10.93575,12.94751 C 112.15537,225.37351 65.145672,206.03083 20.447745,182.06461 z" id="path5389"/>
    <g id="g3782">
      <path id="path5413" d="m 358.18649,72.652546 c -18.83368,21.820614 -23.22137,26.029994 -39.48913,46.962544 -2.05242,2.994 -3.0433,7.71375 -0.0853,10.47381 2.02377,2.54544 7.27851,3.12173 8.00384,-0.84954 0.65806,-3.01626 0.83963,-3.53662 2.15054,-6.38334 10.47147,-12.35447 19.06625,-23.84263 32.351,-39.46825 1.42083,-2.77052 4.83015,-6.49081 2.2423,-9.50229 -1.37135,-1.25512 -3.39362,-1.576966 -5.17326,-1.232934 z" style="fill:url(#linearGradient3776);fill-rule:evenodd;stroke:#000000;stroke-width:2;stroke-linecap:butt;stroke-linejoin:miter;stroke-miterlimit:4;stroke-opacity:1;stroke-dasharray:none;fill-opacity:1"/>
      <path style="fill:url(#linearGradient3780);fill-opacity:1;fill-rule:evenodd;stroke:#000000;stroke-width:2;stroke-linecap:butt;stroke-linejoin:miter;stroke-miterlimit:4;stroke-opacity:1;stroke-dasharray:none" d="m 402.18649,100.65255 c -18.83368,21.82061 -23.22137,26.02999 -39.48913,46.96254 -2.05242,2.994 -3.0433,7.71375 -0.0853,10.47381 2.02377,2.54544 7.27851,3.12173 8.00384,-0.84954 0.65806,-3.01626 0.83963,-3.53662 2.15054,-6.38334 10.47147,-12.35447 19.06625,-23.84263 32.351,-39.46825 1.42083,-2.77052 4.83015,-6.49081 2.2423,-9.50229 -1.37135,-1.25512 -3.39362,-1.57697 -5.17326,-1.23293 z" id="path3778"/>
    </g>
  </g>
  <path style="font-size:medium;font-style:normal;font-variant:normal;font-weight:normal;font-stretch:normal;text-indent:0;text-align:start;text-decoration:none;line-height:normal;letter-spacing:normal;word-spacing:normal;text-transform:none;direction:ltr;block-progression:tb;writing-mode:lr-tb;text-anchor:start;color:#000000;fill:#292a9f;fill-opacity:1;fill-rule:evenodd;stroke:#000000;stroke-width:1;stroke-miterlimit:4;stroke-opacity:1;stroke-dasharray:none;marker:none;visibility:visible;display:inline;overflow:visible;enable-background:accumulate;font-family:Bitstream Vera Sans;-inkscape-font-specification:Bitstream Vera Sans" d="m 251.34375,162.34375 0,1.65626 c 0.0478,5.7354 -0.0732,7.5429 0,12.90624 0.15312,19.34712 0.42705,27.57322 0.31249,41.09375 0.0636,2.88256 -0.086,10.34435 -0.40624,17.59373 -0.16011,3.62471 -0.35902,7.20857 -0.59374,10.15626 -0.22999,2.88816 -0.49094,5.1266 -0.75001,6.15625 -0.62981,0.75314 -1.87602,1.34715 -3.49999,1.71875 -1.68683,0.38599 -3.74234,0.54325 -5.78126,0.59374 -2.0389,0.0505 -4.04492,-0.0169 -5.71875,-0.0625 -1.67383,-0.0456 -2.92534,-0.0901 -3.71874,0.0625 l -2.25001,0.40624 2.12501,0.87503 c 3.88624,1.59673 7.54845,2.99151 10.03124,4.49999 1.24141,0.75424 2.17818,1.55483 2.71875,2.34374 0.54058,0.78896 0.72009,1.53563 0.50001,2.5 l -0.28126,1.21876 1.15626,-0.43749 c 3.88445,-1.42513 6.44067,-1.97086 8.18748,-2.87502 0.87342,-0.45207 1.5702,-1.03549 2.00001,-1.84372 0.42982,-0.80827 0.59558,-1.78404 0.59375,-3.03127 -0.024,-2.02413 0.23238,-8.86716 0.5,-15.81251 0.26763,-6.94532 0.5465,-14.00351 0.5,-16.8125 -0.1337,-8.07865 -0.10608,-14.07455 -0.0625,-19.99997 2.09265,6.152 5.77865,13.61315 10.34375,20.90624 5.77028,9.21836 12.84359,18.03574 19.68752,23.09375 l 1.81249,1.31251 -0.78125,-2.09375 c -0.66984,-1.84424 -2.26485,-4.0698 -2.40625,-6.34378 -0.0707,-1.13699 0.19931,-2.25072 1.12501,-3.46873 0.92569,-1.21805 2.54239,-2.51422 5.25,-3.78125 l 1.99999,-0.93752 -2.1875,-0.34375 C 279.56858,231.6121 268.79245,217.51737 262.5,206.56249 c 1.20892,-0.22816 2.56123,-0.6585 4.65626,-1.50001 2.54371,-1.02171 5.63527,-2.35388 8.84376,-3.68748 6.41695,-2.66727 13.39779,-5.26933 16.87499,-5.28126 l 1.40624,0 -0.87498,-1.12498 c -1.24582,-1.56887 -3.3462,-2.91426 -4.68751,-6.87503 l -0.46875,-1.37497 -0.78126,1.24998 c -0.17857,0.2931 -0.69348,0.83643 -1.46875,1.46876 -0.77524,0.63233 -1.79355,1.36157 -2.96873,2.15625 -2.35038,1.58931 -5.32663,3.44376 -8.34376,5.24997 -3.01712,1.80626 -6.06892,3.56233 -8.56249,5.06253 -2.15497,1.29647 -3.56644,2.2425 -4.56251,2.99998 -2.30349,-4.18709 -3.93991,-7.7572 -4.59375,-9.65623 0.10198,-6.14736 0.23511,-11.83897 0.3125,-17.81251 0.29794,-0.005 0.57009,-0.0169 0.93751,0.0312 0.58771,0.0773 1.34999,0.19894 2.4375,0.1875 l 0.87498,-0.0312 -0.21874,-0.84374 c -0.59625,-2.18531 -2.5431,-5.14904 -4.46875,-7.81251 -0.96283,-1.33171 -1.9125,-2.56979 -2.6875,-3.53126 -0.77499,-0.96142 -1.35904,-1.61134 -1.65624,-1.90625 l -1.15626,-1.18748 z m -13.53125,20.84375 -0.0937,0.31249 -2.65627,9.09374 c -5.04229,-0.0256 -13.50305,-0.053 -29.09375,-0.0312 l 0,3.21873 1.21876,4.15625 1.21875,-4.15625 c 13.24421,-0.0124 21.0881,0.009 26.1875,0.0312 -2.81407,30.16221 -19.67766,55.87134 -19.96875,56.31248 -0.002,0.004 -0.125,0.15625 -0.125,0.15625 l 0.84374,2 c 0.039,-0.0381 0.0548,-0.11795 0.0937,-0.15624 17.41255,-17.12959 25.82382,-54.34186 26.68751,-58.34374 l 1.46875,0 -0.25,-0.65624 c -0.261,-0.65846 -0.48183,-1.16267 -0.71875,-1.75001 -1.73697,-4.30591 -2.86982,-6.87212 -3.56251,-8.25 -0.39359,-0.78293 -0.66593,-1.20483 -0.81249,-1.46876 -0.11916,-0.21456 -0.25233,-0.36057 -0.43751,-0.46874 z" id="path2684"/>
</svg>