<svg width="500" height="650" viewBox="0 0 500 650" fill="none" xmlns="http://www.w3.org/2000/svg">
<path fill-rule="evenodd" clip-rule="evenodd" d="M112.431 230.049C112.431 245.884 112.431 261.718 112.431 277.553C112.431 292.453 113.162 307.231 113.162 322.132C113.162 347.977 113.162 373.699 113.162 399.599C113.162 422.05 112.591 444.467 114.624 466.834C117.373 497.075 132.677 509.519 144.587 533.338C147.491 539.145 148.972 558.511 148.972 564.763C148.972 570.131 179.552 552.377 184.051 550.878C212.514 541.39 235.257 548.533 260.056 564.032C274.434 573.018 290.048 567.546 305.367 570.61C318.191 573.175 324.325 569.759 333.869 564.032C342.831 558.655 345.125 549.777 348.485 541.377C358.044 517.481 360.967 486.277 366.025 460.987C373.2 425.111 379.179 403.463 379.179 365.981C379.179 335.86 374.794 305.868 374.794 275.36C374.794 257.577 374.794 239.794 374.794 222.01" fill="#F9F9F9"/>
<path d="M112.431 230.049C112.431 245.884 112.431 261.718 112.431 277.553C112.431 292.453 113.162 307.231 113.162 322.132C113.162 347.977 113.162 373.699 113.162 399.599C113.162 422.05 112.591 444.467 114.624 466.834C117.373 497.075 132.677 509.519 144.587 533.338C147.491 539.145 148.972 558.511 148.972 564.763C148.972 570.131 179.552 552.377 184.051 550.878C212.514 541.39 235.257 548.533 260.056 564.032C274.434 573.018 290.048 567.546 305.367 570.61C318.191 573.175 324.325 569.759 333.869 564.032C342.831 558.655 345.125 549.777 348.485 541.377C358.044 517.481 360.967 486.277 366.025 460.987C373.2 425.111 379.179 403.463 379.179 365.981C379.179 335.86 374.794 305.868 374.794 275.36C374.794 257.577 374.794 239.794 374.794 222.01" stroke="black"/>
<path fill-rule="evenodd" clip-rule="evenodd" d="M84.5659 215.31C80.6536 281.039 73.4637 364.29 73.4637 430.129C37.1398 525.736 26.8629 508.224 12.0751 540.399C13.3668 546.857 24.3534 555.775 28.8839 559.4C38.3587 566.98 59.0711 568.647 71.2712 574.747C81.1796 579.701 84.6353 586.859 89.5416 596.671C111.203 638.01 133.031 626.658 169.931 635.405C177.327 586.169 178.336 537.967 171.393 488.594C169.058 419.843 173.806 309.382 176.058 241.412" fill="#F9F9F9"/>
<path d="M84.5659 215.31C80.6536 281.039 73.4637 364.29 73.4637 430.129C37.1398 525.736 26.8629 508.224 12.0751 540.399C13.3668 546.857 24.3534 555.775 28.8839 559.4C38.3587 566.98 59.0711 568.647 71.2712 574.747C81.1796 579.701 84.6353 586.859 89.5416 596.671C111.203 638.01 133.031 626.658 169.931 635.405C177.327 586.169 178.336 537.967 171.393 488.594C169.058 419.843 173.806 309.382 176.058 241.412" stroke="black"/>
<path fill-rule="evenodd" clip-rule="evenodd" d="M435.948 200.844C435.948 194.997 435.948 235.001 435.948 240.848C435.948 253.361 436.254 267.207 434.487 279.581C412.634 352.237 452.063 397.978 469.566 461.554C471.363 470.538 484.316 489.216 486.517 498.022C488.229 504.869 487.663 506.693 484.325 513.369C480.39 521.237 475.594 523.143 467.516 531.639C437.399 578.573 384.641 560.27 368.863 608.762C364.653 621.088 345.147 619.884 333.821 621.029C327.604 622.583 332.495 604.538 331.442 598.217C330.497 592.55 330.359 586.546 331.015 580.804C331.132 579.778 331.274 578.76 331.442 577.754C333.12 567.681 335.096 558.321 335.096 547.791C335.096 538.777 335.096 529.764 335.096 520.75C329.067 437.408 341.084 301.176 336.744 256.439" fill="#F9F9F9"/>
<path d="M435.948 200.844C435.948 194.997 435.948 235.001 435.948 240.848C435.948 253.361 436.254 267.207 434.487 279.581C412.634 352.237 452.063 397.978 469.566 461.554C471.363 470.538 484.316 489.216 486.517 498.022C488.229 504.869 487.663 506.693 484.325 513.369C480.39 521.237 475.594 523.143 467.516 531.639C437.399 578.573 384.641 560.27 368.863 608.762C364.653 621.088 345.147 619.884 333.821 621.029C327.604 622.583 332.495 604.538 331.442 598.217C330.497 592.55 330.359 586.546 331.015 580.804C331.132 579.778 331.274 578.76 331.442 577.754C333.12 567.681 335.096 558.321 335.096 547.791C335.096 538.777 335.096 529.764 335.096 520.75C329.067 437.408 341.084 301.176 336.744 256.439" stroke="black"/>
<path opacity="0.837545" d="M311.963 570.261C311.71 570.008 302.594 569.387 291.705 568.881C269.574 567.852 268.316 567.543 254.548 559.733C236.639 549.575 217.887 544.422 204.028 545.849C196.073 546.668 185.16 549.202 181.335 551.118C179.818 551.878 178.166 552.499 177.664 552.499C177.162 552.499 176.427 543.424 176.033 532.332C175.638 521.241 174.901 509.409 174.394 506.039C172.075 490.615 171.325 451.138 172.374 399.844C173.508 344.447 175.912 268.792 176.557 268.202C176.77 268.007 194.405 274.49 215.746 282.61C237.087 290.729 255.704 297.373 257.116 297.373C263.095 297.374 297.395 284.386 322.521 272.606C329.579 269.297 335.667 266.59 336.05 266.59C337.264 266.59 336.803 297.811 334.617 363.595C332.825 417.544 332.602 437.599 333.175 493.275C333.614 535.956 333.496 560.061 332.841 561.763C332.139 563.587 330.01 565.186 325.865 567.003C320.108 569.525 312.913 571.211 311.963 570.261H311.963Z" fill="url(#paint0_linear)"/>
<path opacity="0.837545" d="M311.884 570.277C311.631 570.024 302.515 569.403 291.626 568.897C269.495 567.868 268.237 567.559 254.469 559.749C236.56 549.591 217.808 544.438 203.949 545.865C195.994 546.684 185.081 549.218 181.256 551.134C179.739 551.894 178.087 552.515 177.585 552.515C177.083 552.515 176.348 543.44 175.954 532.348C175.559 521.257 174.822 509.425 174.315 506.055C171.996 490.631 171.246 451.154 172.296 399.86C173.429 344.463 175.833 268.808 176.478 268.218C176.691 268.023 194.326 274.506 215.667 282.626C237.008 290.745 255.625 297.389 257.037 297.389C263.016 297.39 297.316 284.402 322.442 272.622C329.5 269.313 335.588 266.606 335.971 266.606C337.185 266.606 336.724 297.827 334.538 363.611C332.746 417.56 332.523 437.615 333.096 493.291C333.535 535.972 333.417 560.077 332.762 561.779C332.06 563.603 329.931 565.202 325.786 567.019C320.029 569.541 312.834 571.227 311.884 570.277H311.884Z" fill="url(#paint1_linear)"/>
<g filter="url(#filter0_f)">
<path d="M103.106 232.285C103.106 247.942 103.106 271.768 103.106 287.425C100.745 305.189 91.3646 331.298 77.5787 343.586" stroke="black"/>
</g>
<g filter="url(#filter1_f)">
<path d="M133.85 276.251C132.21 297.54 132.829 319.135 132.829 340.581C132.829 355.511 128.009 367.457 125.681 381.425C123.925 391.958 122.604 401.914 120.575 412.058C119.455 417.658 116.8 422.674 114.449 427.375" stroke="black"/>
</g>
<g filter="url(#filter2_f)">
<path d="M122.747 454.36C116.894 470.58 119.89 492.446 122.795 509.091C127.39 535.415 131.812 560.394 140.16 586.039C143.427 596.075 149.49 602.822 150.509 613.405" stroke="black"/>
</g>
<g filter="url(#filter3_f)">
<path d="M85.6303 449.774C93.2867 465.087 92.778 486.671 92.778 503.892C92.778 514.456 90.5522 522.731 86.6514 532.483C83.8239 539.552 84.6092 549.388 84.6092 556.99" stroke="black"/>
</g>
<g filter="url(#filter4_f)">
<path d="M359.403 244.539C356.459 269.403 364.457 296.821 358.382 321.121C353.553 340.438 358.382 367.423 358.382 387.493C358.382 402.277 360.909 420.274 357.361 434.464C355.622 441.422 357.361 450.733 357.361 457.949" stroke="black"/>
</g>
<g filter="url(#filter5_f)">
<path d="M386.238 422.328C387.066 451.929 372.678 507.514 372.678 529.427C372.678 552.461 368.081 582.532 362.467 604.988" stroke="black"/>
</g>
<g filter="url(#filter6_f)">
<path d="M396.163 247.602C396.163 292.351 394.284 338.923 399.226 383.409C402.676 414.459 402.29 445.067 402.29 476.329C402.29 483.021 401.505 481.824 401.269 483.477" stroke="black"/>
</g>
<g filter="url(#filter7_f)">
<path d="M417.606 335.417C417.606 341.884 417.606 348.351 417.606 354.818C417.606 376.163 422.015 437.155 431.902 456.928C433.263 459.651 434.625 462.374 435.986 465.097C440.931 474.986 448.239 490.551 448.239 501.857C448.239 511.947 452.324 520.59 452.324 530.448C452.324 531.128 452.324 531.809 452.324 532.49" stroke="black"/>
</g>
<path fill-rule="evenodd" clip-rule="evenodd" d="M9.76633 191.213C126.46 85.6374 244.003 9.17372 244.368 9.14859C435.811 114.911 490.638 176.727 490.792 176.899C324.468 282.026 257.824 296.266 256.537 296.353C11.3012 205.456 9.4353 191.69 9.43821 191.681" fill="white"/>
<path d="M9.76633 191.213C126.46 85.6374 244.003 9.17372 244.368 9.14859C435.811 114.911 490.638 176.727 490.792 176.899C324.468 282.026 257.824 296.266 256.537 296.353C11.3012 205.456 9.4353 191.69 9.43821 191.681" stroke="black" stroke-width="2"/>
<path d="M32.2422 188.127L20.6412 182.557L23.1673 180.345C79.3341 131.161 133.442 88.2407 193.66 45.1034C212.257 31.7822 243.57 10.4109 244.492 10.4109C245.236 10.4109 279.502 29.8407 299.109 41.3795C371.783 84.1504 431.107 124.893 470.681 159.211L479.692 167.026L472.974 171.011C392.888 223.412 337.808 253.722 254.179 279.473C177.065 256.41 104.584 222.945 32.2422 188.127Z" fill="white" stroke="#00000E" stroke-width="2" stroke-linecap="round"/>
<path d="M20.4478 182.065L22.9738 179.853C79.1406 130.669 133.249 87.7482 193.467 44.6108C212.063 31.2896 243.376 9.91833 244.298 9.91833C245.042 9.91833 279.309 29.3481 298.915 40.887C371.589 83.6578 430.913 124.4 470.488 158.719L479.499 166.533C438.159 194.724 393.635 223.537 346.226 243.748C344.248 244.144 342.853 240.479 338.057 234.883C335.188 231.536 324.535 220.247 314.383 209.797C304.23 199.346 285.568 179.943 272.911 166.678C260.255 153.414 249.436 142.452 248.869 142.318C246.028 141.647 206.047 187.16 169.851 232.269C164.126 239.404 159.205 245.23 158.915 245.217C112.155 225.373 65.1457 206.031 20.4478 182.065Z" stroke="black" stroke-width="2" stroke-linecap="round"/>
<defs>
<filter id="filter0_f" x="76.4966" y="231.536" width="27.8592" height="113.172" filterUnits="userSpaceOnUse" color-interpolation-filters="sRGB">
<feFlood flood-opacity="0" result="BackgroundImageFix"/>
<feBlend mode="normal" in="SourceGraphic" in2="BackgroundImageFix" result="shape"/>
<feGaussianBlur stdDeviation="0.374724" result="effect1_foregroundBlur"/>
</filter>
<filter id="filter1_f" x="113.252" y="275.464" width="21.8456" height="152.884" filterUnits="userSpaceOnUse" color-interpolation-filters="sRGB">
<feFlood flood-opacity="0" result="BackgroundImageFix"/>
<feBlend mode="normal" in="SourceGraphic" in2="BackgroundImageFix" result="shape"/>
<feGaussianBlur stdDeviation="0.374724" result="effect1_foregroundBlur"/>
</filter>
<filter id="filter2_f" x="97.8059" y="453.296" width="76.6752" height="161.051" filterUnits="userSpaceOnUse" color-interpolation-filters="sRGB">
<feFlood flood-opacity="0" result="BackgroundImageFix"/>
<feBlend mode="normal" in="SourceGraphic" in2="BackgroundImageFix" result="shape"/>
<feGaussianBlur stdDeviation="0.374724" result="effect1_foregroundBlur"/>
</filter>
<filter id="filter3_f" x="83.2597" y="448.801" width="10.7748" height="108.938" filterUnits="userSpaceOnUse" color-interpolation-filters="sRGB">
<feFlood flood-opacity="0" result="BackgroundImageFix"/>
<feBlend mode="normal" in="SourceGraphic" in2="BackgroundImageFix" result="shape"/>
<feGaussianBlur stdDeviation="0.374724" result="effect1_foregroundBlur"/>
</filter>
<filter id="filter4_f" x="354.986" y="243.73" width="6.99007" height="214.968" filterUnits="userSpaceOnUse" color-interpolation-filters="sRGB">
<feFlood flood-opacity="0" result="BackgroundImageFix"/>
<feBlend mode="normal" in="SourceGraphic" in2="BackgroundImageFix" result="shape"/>
<feGaussianBlur stdDeviation="0.374724" result="effect1_foregroundBlur"/>
</filter>
<filter id="filter5_f" x="361.232" y="421.565" width="26.29" height="184.294" filterUnits="userSpaceOnUse" color-interpolation-filters="sRGB">
<feFlood flood-opacity="0" result="BackgroundImageFix"/>
<feBlend mode="normal" in="SourceGraphic" in2="BackgroundImageFix" result="shape"/>
<feGaussianBlur stdDeviation="0.374724" result="effect1_foregroundBlur"/>
</filter>
<filter id="filter6_f" x="394.563" y="246.852" width="8.98936" height="237.445" filterUnits="userSpaceOnUse" color-interpolation-filters="sRGB">
<feFlood flood-opacity="0" result="BackgroundImageFix"/>
<feBlend mode="normal" in="SourceGraphic" in2="BackgroundImageFix" result="shape"/>
<feGaussianBlur stdDeviation="0.374724" result="effect1_foregroundBlur"/>
</filter>
<filter id="filter7_f" x="416.357" y="334.667" width="37.2164" height="198.572" filterUnits="userSpaceOnUse" color-interpolation-filters="sRGB">
<feFlood flood-opacity="0" result="BackgroundImageFix"/>
<feBlend mode="normal" in="SourceGraphic" in2="BackgroundImageFix" result="shape"/>
<feGaussianBlur stdDeviation="0.374724" result="effect1_foregroundBlur"/>
</filter>
<linearGradient id="paint0_linear" x1="143.319" y1="418.56" x2="217.239" y2="418.56" gradientUnits="userSpaceOnUse">
<stop stop-color="#B3B3B3"/>
<stop offset="1" stop-color="#B3B3B3" stop-opacity="0"/>
</linearGradient>
<linearGradient id="paint1_linear" x1="361.756" y1="418.576" x2="286.595" y2="418.576" gradientUnits="userSpaceOnUse">
<stop stop-color="#B3B3B3"/>
<stop offset="1" stop-color="#B3B3B3" stop-opacity="0"/>
</linearGradient>
</defs>
</svg>
